<svg xmlns="http://www.w3.org/2000/svg" xmlns:xlink="http://www.w3.org/1999/xlink" width="736" height="520"><g transform="translate(-120 -120)"><path d="M440 140h240v60H440z" stroke="#fff" stroke-width="4" fill="none"/><use xlink:href="#a" transform="matrix(1,0,0,1,445,145) translate(26.259259259259252 32.111111111111114)"/><use xlink:href="#b" transform="matrix(1,0,0,1,445,145) translate(107.14814814814815 32.111111111111114)"/><path d="M280 340h240v60H280z" stroke="#fff" stroke-width="4" fill="none"/><use xlink:href="#c" transform="matrix(1,0,0,1,285,345) translate(46.950617283950606 32.111111111111114)"/><use xlink:href="#d" transform="matrix(1,0,0,1,285,345) translate(127.8395061728395 32.111111111111114)"/><path d="M320 570c0 27.6-22.4 50-50 50s-50-22.4-50-50 22.4-50 50-50 50 22.4 50 50z" stroke="#fff" stroke-width="5" fill="none"/><use xlink:href="#e" transform="matrix(1,0,0,1,225,525) translate(9.493827160493822 52.111111111111114)"/><path d="M780 390c0 27.6-22.4 50-50 50s-50-22.4-50-50 22.4-50 50-50 50 22.4 50 50z" stroke="#fff" stroke-width="5" fill="none"/><use xlink:href="#f" transform="matrix(1,0,0,1,685,345) translate(14.432098765432094 52.111111111111114)"/><path d="M560 200L401 338" stroke="#fff" stroke-width="4" fill="none"/><path d="M561.3 201.5L560 200h3.05zM414.8 332.15L401 338l7.74-12.85z" fill="#fff"/><path d="M418.13 332.92L401.4 340h-3.94l10.98-18.24zm-12.24.84l5.6-2.38-2.47-2.84z" fill="#fff"/><path d="M560 200l170 140" stroke="#fff" stroke-width="4" fill="none"/><path d="M558.73 201.54l-1.88-1.54H560zM730 340l-13.96-5.5 5.9-7.15z" fill="#fff"/><path d="M732.45 340.12L730 340l-3.6.13-1.18.14-12.47-4.9 9.4-11.4zm-13.12-6.46l5.67 2.23-3.27-5.15z" fill="#fff"/><path d="M580 570c0 27.6-22.4 50-50 50s-50-22.4-50-50 22.4-50 50-50 50 22.4 50 50z" stroke="#fff" stroke-width="5" fill="none"/><use xlink:href="#f" transform="matrix(1,0,0,1,485,525) translate(14.432098765432094 52.111111111111114)"/><path d="M400 400L270 520" stroke="#fff" stroke-width="4" fill="none"/><path d="M401.36 401.47L400 400h2.95zM283.63 513.73L270 520l7.34-13.08z" fill="#fff"/><path d="M286.96 514.4l-12.64 5.82L270 520l-2.34.08 9.28-16.54zm-12.2 1.2l5.53-2.54-2.56-2.76z" fill="#fff"/><path d="M400 400l130 120" stroke="#fff" stroke-width="4" fill="none"/><path d="M398.64 401.47l-1.6-1.47H400zM530 520l-13.63-6.27 6.3-6.8z" fill="#fff"/><path d="M532.36 520.12L530 520l-3.6.13-.72.1-12.64-5.83 10.02-10.86zm-12.65-7.06l5.54 2.55-2.98-5.3z" fill="#fff"/><path d="M280 245c0-2.76 2.24-5 5-5h150c2.76 0 5 2.24 5 5v30c0 2.76-2.24 5-5 5H285c-2.76 0-5-2.24-5-5z" fill="none"/><use xlink:href="#g" transform="matrix(1,0,0,1,285,245) translate(20 23.111111111111114)"/><use xlink:href="#h" transform="matrix(1,0,0,1,285,245) translate(61.72839506172839 23.111111111111114)"/><path d="M676 245c0-2.76 2.24-5 5-5h150c2.76 0 5 2.24 5 5v30c0 2.76-2.24 5-5 5H681c-2.76 0-5-2.24-5-5z" fill="none"/><use xlink:href="#i" transform="matrix(1,0,0,1,681,245) translate(0 23.111111111111114)"/><use xlink:href="#h" transform="matrix(1,0,0,1,681,245) translate(24.876543209876544 23.111111111111114)"/><path d="M140 435c0-2.76 2.24-5 5-5h150c2.76 0 5 2.24 5 5v30c0 2.76-2.24 5-5 5H145c-2.76 0-5-2.24-5-5z" fill="none"/><g><use xlink:href="#g" transform="matrix(1,0,0,1,145,435) translate(20 23.111111111111114)"/><use xlink:href="#j" transform="matrix(1,0,0,1,145,435) translate(61.72839506172839 23.111111111111114)"/></g><path d="M480 435c0-2.76 2.24-5 5-5h150c2.76 0 5 2.24 5 5v30c0 2.76-2.24 5-5 5H485c-2.76 0-5-2.24-5-5z" fill="none"/><g><use xlink:href="#k" transform="matrix(1,0,0,1,485,435) translate(0 23.111111111111114)"/><use xlink:href="#l" transform="matrix(1,0,0,1,485,435) translate(8.024691358024691 23.111111111111114)"/><use xlink:href="#m" transform="matrix(1,0,0,1,485,435) translate(32.901234567901234 23.111111111111114)"/></g><defs><path fill="#66d15c" d="M133-34C117-15 103 5 69 4 32 3 11-16 11-54c-1-60 55-63 116-61 1-26-3-47-28-47-18 1-26 9-28 27l-52-2c7-38 36-58 82-57s74 22 75 68l1 82c-1 14 12 18 25 15v27c-30 8-71 5-69-32zm-48 3c29 0 43-24 42-57-32 0-66-3-65 30 0 17 8 27 23 27" id="n"/><path fill="#66d15c" d="M128 0H69L1-190h53L99-40l48-150h52" id="o"/><path fill="#66d15c" d="M195-6C206 82 75 100 31 46c-4-6-6-13-8-21l49-6c3 16 16 24 34 25 40 0 42-37 40-79-11 22-30 35-61 35-53 0-70-43-70-97 0-56 18-96 73-97 30 0 46 14 59 34l2-30h47zm-90-29c32 0 41-27 41-63 0-35-9-62-40-62-32 0-39 29-40 63 0 36 9 62 39 62" id="p"/><path fill="#66d15c" d="M24 0v-54h51V0H24" id="q"/><g id="a"><use transform="matrix(0.09876543209876544,0,0,0.09876543209876544,0,0)" xlink:href="#n"/><use transform="matrix(0.09876543209876544,0,0,0.09876543209876544,19.75308641975309,0)" xlink:href="#o"/><use transform="matrix(0.09876543209876544,0,0,0.09876543209876544,39.50617283950618,0)" xlink:href="#p"/><use transform="matrix(0.09876543209876544,0,0,0.09876543209876544,61.13580246913581,0)" xlink:href="#q"/></g><path fill="#66d15c" d="M135-150c-39-12-60 13-60 57V0H25l-1-190h47c2 13-1 29 3 40 6-28 27-53 61-41v41" id="r"/><path fill="#66d15c" d="M185-48c-13 30-37 53-82 52C43 2 14-33 14-96s30-98 90-98c62 0 83 45 84 108H66c0 31 8 55 39 56 18 0 30-7 34-22zm-45-69c5-46-57-63-70-21-2 6-4 13-4 21h74" id="s"/><path fill="#66d15c" d="M135-194c87-1 58 113 63 194h-50c-7-57 23-157-34-157-59 0-34 97-39 157H25l-1-190h47c2 12-1 28 3 38 12-26 28-41 61-42" id="t"/><g id="b"><use transform="matrix(0.09876543209876544,0,0,0.09876543209876544,0,0)" xlink:href="#p"/><use transform="matrix(0.09876543209876544,0,0,0.09876543209876544,21.62962962962963,0)" xlink:href="#r"/><use transform="matrix(0.09876543209876544,0,0,0.09876543209876544,35.45679012345679,0)" xlink:href="#s"/><use transform="matrix(0.09876543209876544,0,0,0.09876543209876544,55.20987654320988,0)" xlink:href="#s"/><use transform="matrix(0.09876543209876544,0,0,0.09876543209876544,74.96296296296296,0)" xlink:href="#t"/></g><path fill="#c92d39" d="M133-34C117-15 103 5 69 4 32 3 11-16 11-54c-1-60 55-63 116-61 1-26-3-47-28-47-18 1-26 9-28 27l-52-2c7-38 36-58 82-57s74 22 75 68l1 82c-1 14 12 18 25 15v27c-30 8-71 5-69-32zm-48 3c29 0 43-24 42-57-32 0-66-3-65 30 0 17 8 27 23 27" id="u"/><path fill="#c92d39" d="M128 0H69L1-190h53L99-40l48-150h52" id="v"/><path fill="#c92d39" d="M195-6C206 82 75 100 31 46c-4-6-6-13-8-21l49-6c3 16 16 24 34 25 40 0 42-37 40-79-11 22-30 35-61 35-53 0-70-43-70-97 0-56 18-96 73-97 30 0 46 14 59 34l2-30h47zm-90-29c32 0 41-27 41-63 0-35-9-62-40-62-32 0-39 29-40 63 0 36 9 62 39 62" id="w"/><path fill="#c92d39" d="M24 0v-54h51V0H24" id="x"/><g id="c"><use transform="matrix(0.09876543209876544,0,0,0.09876543209876544,0,0)" xlink:href="#u"/><use transform="matrix(0.09876543209876544,0,0,0.09876543209876544,19.75308641975309,0)" xlink:href="#v"/><use transform="matrix(0.09876543209876544,0,0,0.09876543209876544,39.50617283950618,0)" xlink:href="#w"/><use transform="matrix(0.09876543209876544,0,0,0.09876543209876544,61.13580246913581,0)" xlink:href="#x"/></g><path fill="#c92d39" d="M135-150c-39-12-60 13-60 57V0H25l-1-190h47c2 13-1 29 3 40 6-28 27-53 61-41v41" id="y"/><path fill="#c92d39" d="M185-48c-13 30-37 53-82 52C43 2 14-33 14-96s30-98 90-98c62 0 83 45 84 108H66c0 31 8 55 39 56 18 0 30-7 34-22zm-45-69c5-46-57-63-70-21-2 6-4 13-4 21h74" id="z"/><path fill="#c92d39" d="M88-194c31-1 46 15 58 34l-1-101h50l1 261h-48c-2-10 0-23-3-31C134-8 116 4 84 4 32 4 16-41 15-95c0-56 19-97 73-99zm17 164c33 0 40-30 41-66 1-37-9-64-41-64s-38 30-39 65c0 43 13 65 39 65" id="A"/><g id="d"><use transform="matrix(0.09876543209876544,0,0,0.09876543209876544,0,0)" xlink:href="#y"/><use transform="matrix(0.09876543209876544,0,0,0.09876543209876544,13.827160493827162,0)" xlink:href="#z"/><use transform="matrix(0.09876543209876544,0,0,0.09876543209876544,33.580246913580254,0)" xlink:href="#A"/></g><path fill="#fff" d="M121-226c-27-7-43 5-38 36h38v33H83V0H34v-157H6v-33h28c-9-59 32-81 87-68v32" id="B"/><path fill="#fff" d="M133-34C117-15 103 5 69 4 32 3 11-16 11-54c-1-60 55-63 116-61 1-26-3-47-28-47-18 1-26 9-28 27l-52-2c7-38 36-58 82-57s74 22 75 68l1 82c-1 14 12 18 25 15v27c-30 8-71 5-69-32zm-48 3c29 0 43-24 42-57-32 0-66-3-65 30 0 17 8 27 23 27" id="C"/><path fill="#fff" d="M190-63c-7 42-38 67-86 67-59 0-84-38-90-98-12-110 154-137 174-36l-49 2c-2-19-15-32-35-32-30 0-35 28-38 64-6 74 65 87 74 30" id="D"/><path fill="#fff" d="M185-48c-13 30-37 53-82 52C43 2 14-33 14-96s30-98 90-98c62 0 83 45 84 108H66c0 31 8 55 39 56 18 0 30-7 34-22zm-45-69c5-46-57-63-70-21-2 6-4 13-4 21h74" id="E"/><g id="e"><use transform="matrix(0.09876543209876544,0,0,0.09876543209876544,0,0)" xlink:href="#B"/><use transform="matrix(0.09876543209876544,0,0,0.09876543209876544,11.753086419753087,0)" xlink:href="#C"/><use transform="matrix(0.09876543209876544,0,0,0.09876543209876544,31.506172839506174,0)" xlink:href="#D"/><use transform="matrix(0.09876543209876544,0,0,0.09876543209876544,51.25925925925927,0)" xlink:href="#E"/></g><path fill="#fff" d="M128 0H69L1-190h53L99-40l48-150h52" id="F"/><path fill="#fff" d="M195-6C206 82 75 100 31 46c-4-6-6-13-8-21l49-6c3 16 16 24 34 25 40 0 42-37 40-79-11 22-30 35-61 35-53 0-70-43-70-97 0-56 18-96 73-97 30 0 46 14 59 34l2-30h47zm-90-29c32 0 41-27 41-63 0-35-9-62-40-62-32 0-39 29-40 63 0 36 9 62 39 62" id="G"/><g id="f"><use transform="matrix(0.09876543209876544,0,0,0.09876543209876544,0,0)" xlink:href="#F"/><use transform="matrix(0.09876543209876544,0,0,0.09876543209876544,19.75308641975309,0)" xlink:href="#E"/><use transform="matrix(0.09876543209876544,0,0,0.09876543209876544,39.50617283950618,0)" xlink:href="#G"/></g><path fill="#fff" d="M15-91v-56l181-69v40L49-119l147 57v40" id="H"/><path fill="#fff" d="M15-148v-39h180v39H15zm0 97v-39h180v39H15" id="I"/><g id="g"><use transform="matrix(0.08024691358024691,0,0,0.08024691358024691,0,0)" xlink:href="#H"/><use transform="matrix(0.08024691358024691,0,0,0.08024691358024691,16.85185185185185,0)" xlink:href="#I"/></g><path fill="#fff" d="M101-251c68 0 84 54 84 127C185-50 166 4 99 4S15-52 14-124c-1-75 17-127 87-127zm-1 216c37-5 36-46 36-89s4-89-36-89c-39 0-36 45-36 89 0 43-3 85 36 89" id="J"/><path fill="#fff" d="M24 0v-54h51V0H24" id="K"/><path fill="#fff" d="M139-81c0-46-55-55-73-27H18l9-140h149v37H72l-4 63c44-38 133-4 122 66C201 21 21 35 11-62l49-4c5 18 15 30 39 30 26 0 40-18 40-45" id="L"/><path fill="#fff" d="M52 0c1-96 47-148 87-207H15v-41h169v40c-36 62-79 113-81 208H52" id="M"/><g id="h"><use transform="matrix(0.08024691358024691,0,0,0.08024691358024691,0,0)" xlink:href="#J"/><use transform="matrix(0.08024691358024691,0,0,0.08024691358024691,16.049382716049383,0)" xlink:href="#K"/><use transform="matrix(0.08024691358024691,0,0,0.08024691358024691,24.074074074074076,0)" xlink:href="#L"/><use transform="matrix(0.08024691358024691,0,0,0.08024691358024691,40.123456790123456,0)" xlink:href="#M"/><use transform="matrix(0.08024691358024691,0,0,0.08024691358024691,56.172839506172835,0)" xlink:href="#M"/><use transform="matrix(0.08024691358024691,0,0,0.08024691358024691,72.22222222222221,0)" xlink:href="#M"/></g><path fill="#fff" d="M15-22v-40l146-57-146-57v-40l181 69v56" id="N"/><use transform="matrix(0.08024691358024691,0,0,0.08024691358024691,0,0)" xlink:href="#N" id="i"/><path fill="#fff" d="M138-131c27 9 52 24 51 61 0 53-36 74-89 74S11-19 11-69c0-35 22-54 51-61-78-25-46-121 38-121 51 0 83 19 83 66 0 30-18 49-45 54zm-38-16c24 0 32-13 32-36 1-23-11-34-32-34-22 0-33 12-32 34 0 22 9 36 32 36zm1 116c27 0 37-17 37-43 0-25-13-39-39-39-24 0-37 15-37 40 0 27 11 42 39 42" id="O"/><g id="j"><use transform="matrix(0.08024691358024691,0,0,0.08024691358024691,0,0)" xlink:href="#J"/><use transform="matrix(0.08024691358024691,0,0,0.08024691358024691,16.049382716049383,0)" xlink:href="#K"/><use transform="matrix(0.08024691358024691,0,0,0.08024691358024691,24.074074074074076,0)" xlink:href="#M"/><use transform="matrix(0.08024691358024691,0,0,0.08024691358024691,40.123456790123456,0)" xlink:href="#L"/><use transform="matrix(0.08024691358024691,0,0,0.08024691358024691,56.172839506172835,0)" xlink:href="#L"/><use transform="matrix(0.08024691358024691,0,0,0.08024691358024691,72.22222222222221,0)" xlink:href="#O"/></g><use transform="matrix(0.08024691358024691,0,0,0.08024691358024691,0,0)" xlink:href="#N" id="l"/><g id="m"><use transform="matrix(0.08024691358024691,0,0,0.08024691358024691,0,0)" xlink:href="#J"/><use transform="matrix(0.08024691358024691,0,0,0.08024691358024691,16.049382716049383,0)" xlink:href="#K"/><use transform="matrix(0.08024691358024691,0,0,0.08024691358024691,24.074074074074076,0)" xlink:href="#M"/><use transform="matrix(0.08024691358024691,0,0,0.08024691358024691,40.123456790123456,0)" xlink:href="#L"/><use transform="matrix(0.08024691358024691,0,0,0.08024691358024691,56.172839506172835,0)" xlink:href="#L"/><use transform="matrix(0.08024691358024691,0,0,0.08024691358024691,72.22222222222221,0)" xlink:href="#O"/></g></defs></g></svg>