<svg xmlns="http://www.w3.org/2000/svg" xmlns:xlink="http://www.w3.org/1999/xlink" width="1160" height="247.4"><g transform="translate(-20 -232.6)"><path d="M900 391c0-2.76 2.24-5 5-5h110c2.76 0 5 2.24 5 5v50c0 2.76-2.24 5-5 5H905c-2.76 0-5-2.24-5-5z" fill="none"/><use xlink:href="#a" transform="matrix(1,0,0,1,905,391) translate(27.149999999999995 17.799999999999997)"/><use xlink:href="#b" transform="matrix(1,0,0,1,905,391) translate(3.325000000000003 39.4)"/><use xlink:href="#c" transform="matrix(1,0,0,1,905,391) translate(45.225 39.4)"/><path d="M480 260h180v60H480z" stroke="#fff" stroke-width="4" fill="none"/><use xlink:href="#d" transform="matrix(1,0,0,1,485,265) translate(20.98765432098766 35.55555555555556)"/><path d="M40 257.6c0-2.76 2.24-5 5-5h170c2.76 0 5 2.24 5 5v64.8c0 2.76-2.24 5-5 5H45c-2.76 0-5-2.24-5-5z" fill="none"/><use xlink:href="#e" transform="matrix(1,0,0,1,45,257.6) translate(45.099999999999994 25.299999999999997)"/><use xlink:href="#f" transform="matrix(1,0,0,1,45,257.6) translate(81.1 25.299999999999997)"/><use xlink:href="#g" transform="matrix(1,0,0,1,45,257.6) translate(7.1499999999999915 46.9)"/><use xlink:href="#h" transform="matrix(1,0,0,1,45,257.6) translate(49.04999999999999 46.9)"/><use xlink:href="#i" transform="matrix(1,0,0,1,45,257.6) translate(105.95 46.9)"/><path d="M220 290h259" stroke="#fff" stroke-width="5" fill="none"/><path d="M220 292.5v-5zM479 290l-14.27 4.64v-9.28z" fill="#fff"/><path d="M480 287.7v4.6l-17.77 5.78v-16.16zm-12.77 3.5l3.68-1.2-3.67-1.2z" fill="#fff"/><path d="M900 265c0-2.76 2.24-5 5-5h110c2.76 0 5 2.24 5 5v50c0 2.76-2.24 5-5 5H905c-2.76 0-5-2.24-5-5z" fill="none"/><use xlink:href="#a" transform="matrix(1,0,0,1,905,265) translate(27.149999999999995 17.799999999999997)"/><use xlink:href="#b" transform="matrix(1,0,0,1,905,265) translate(3.325000000000003 39.4)"/><use xlink:href="#c" transform="matrix(1,0,0,1,905,265) translate(45.225 39.4)"/><path d="M620 385.83h180v60H620z" stroke="#fff" stroke-width="4" fill="none"/><use xlink:href="#d" transform="matrix(1,0,0,1,625,390.83333333333337) translate(20.98765432098766 35.55555555555556)"/><path d="M40 383.43c0-2.76 2.24-5 5-5h170c2.76 0 5 2.24 5 5v64.8c0 2.76-2.24 5-5 5H45c-2.76 0-5-2.24-5-5z" fill="none"/><use xlink:href="#e" transform="matrix(1,0,0,1,45,383.4333333333334) translate(45.099999999999994 25.299999999999997)"/><use xlink:href="#f" transform="matrix(1,0,0,1,45,383.4333333333334) translate(81.1 25.299999999999997)"/><use xlink:href="#g" transform="matrix(1,0,0,1,45,383.4333333333334) translate(7.1499999999999915 46.9)"/><use xlink:href="#h" transform="matrix(1,0,0,1,45,383.4333333333334) translate(49.04999999999999 46.9)"/><use xlink:href="#i" transform="matrix(1,0,0,1,45,383.4333333333334) translate(105.95 46.9)"/><path d="M320 371.67h160V460H320z" stroke="#fff" stroke-width="4" fill="none"/><use xlink:href="#j" transform="matrix(1,0,0,1,325,376.66666666666674) translate(18.9567901234568 27.055555555555554)"/><use xlink:href="#k" transform="matrix(1,0,0,1,325,376.66666666666674) translate(6.858024691358025 64.38888888888889)"/><path d="M220 415.83h99" stroke="#fff" stroke-width="5" fill="none"/><path d="M220 418.33v-5zM319 415.83l-14.27 4.64v-9.27z" fill="#fff"/><path d="M320 413.53v4.6l-17.77 5.78v-16.14zm-12.77 3.5l3.68-1.2-3.67-1.2z" fill="#fff"/><path d="M480 415.83h139" stroke="#000" stroke-width="2" fill="none"/><path d="M480 416.83v-2zM619 415.83l-14.27 4.64v-9.27z"/><path d="M620 415.1v1.46l-16.27 5.3V409.8zm-14.27 4l10.03-3.27-10.03-3.26z"/><path d="M486 368c0-2.76 2.24-5 5-5h110c2.76 0 5 2.24 5 5v43.2c0 2.76-2.24 5-5 5H491c-2.76 0-5-2.24-5-5z" fill="none"/><use xlink:href="#l" transform="matrix(1,0,0,1,491,368) translate(25.075 14.799999999999999)"/><use xlink:href="#m" transform="matrix(1,0,0,1,491,368) translate(28.049999999999997 36.4)"/><path d="M1040 265c0-2.76 2.24-5 5-5h110c2.76 0 5 2.24 5 5v50c0 2.76-2.24 5-5 5h-110c-2.76 0-5-2.24-5-5z" fill="none"/><use xlink:href="#n" transform="matrix(1,0,0,1,1045,265) translate(11.777777777777779 33)"/><path d="M1040 385c0-2.76 2.24-5 5-5h110c2.76 0 5 2.24 5 5v50c0 2.76-2.24 5-5 5h-110c-2.76 0-5-2.24-5-5z" fill="none"/><g><use xlink:href="#o" transform="matrix(1,0,0,1,1045,385) translate(-2.7777777777777786 33)"/></g><path d="M620 415.83H480" stroke="#fff" stroke-width="4" fill="none"/><path d="M620 415.83l-14.27 4.64v-9.27z" fill="#fff"/><path d="M620 413.73v4.2l-16.27 5.3v-14.78zm-12.27 4l5.8-1.9-5.8-1.88z" fill="#fff"/><path d="M660 290h240" stroke="#fff" stroke-width="4" fill="none"/><path d="M660 292v-4zM900 290l-14.27 4.64v-9.28z" fill="#fff"/><path d="M900 287.9v4.2l-16.27 5.3v-14.8zm-12.27 3.98l5.8-1.88-5.8-1.88z" fill="#fff"/><path d="M800 415.83h100" stroke="#fff" stroke-width="4" fill="none"/><path d="M800 417.83v-4zM900 415.83l-14.27 4.64v-9.27z" fill="#fff"/><path d="M900 413.73v4.2l-16.27 5.3v-14.78zm-12.27 4l5.8-1.9-5.8-1.88z" fill="#fff"/><defs><path fill="#fff" d="M110-194c64 0 96 36 96 99 0 64-35 99-97 99-61 0-95-36-95-99 0-62 34-99 96-99zm-1 164c35 0 45-28 45-65 0-40-10-65-43-65-34 0-45 26-45 65 0 36 10 65 43 65" id="p"/><path fill="#fff" d="M85 4C-2 5 27-109 22-190h50c7 57-23 150 33 157 60-5 35-97 40-157h50l1 190h-47c-2-12 1-28-3-38-12 25-28 42-61 42" id="q"/><path fill="#fff" d="M115-3C79 11 28 4 28-45v-112H4v-33h27l15-45h31v45h36v33H77v99c-1 23 16 31 38 25v30" id="r"/><path fill="#fff" d="M135-194c53 0 70 44 70 98 0 56-19 98-73 100-31 1-45-17-59-34 3 33 2 69 2 105H25l-1-265h48c2 10 0 23 3 31 11-24 29-35 60-35zM114-30c33 0 39-31 40-66 0-38-9-64-40-64-56 0-55 130 0 130" id="s"/><g id="a"><use transform="matrix(0.05,0,0,0.05,0,0)" xlink:href="#p"/><use transform="matrix(0.05,0,0,0.05,10.950000000000001,0)" xlink:href="#q"/><use transform="matrix(0.05,0,0,0.05,21.900000000000002,0)" xlink:href="#r"/><use transform="matrix(0.05,0,0,0.05,27.85,0)" xlink:href="#s"/><use transform="matrix(0.05,0,0,0.05,38.800000000000004,0)" xlink:href="#q"/><use transform="matrix(0.05,0,0,0.05,49.75000000000001,0)" xlink:href="#r"/></g><path fill="#fff" d="M67-93c0 74 22 123 53 168H70C40 30 18-18 18-93s22-123 52-168h50c-32 44-53 94-53 168" id="t"/><path fill="#fff" d="M185-48c-13 30-37 53-82 52C43 2 14-33 14-96s30-98 90-98c62 0 83 45 84 108H66c0 31 8 55 39 56 18 0 30-7 34-22zm-45-69c5-46-57-63-70-21-2 6-4 13-4 21h74" id="u"/><path fill="#fff" d="M24 0v-54h51V0H24" id="v"/><path fill="#fff" d="M195-6C206 82 75 100 31 46c-4-6-6-13-8-21l49-6c3 16 16 24 34 25 40 0 42-37 40-79-11 22-30 35-61 35-53 0-70-43-70-97 0-56 18-96 73-97 30 0 46 14 59 34l2-30h47zm-90-29c32 0 41-27 41-63 0-35-9-62-40-62-32 0-39 29-40 63 0 36 9 62 39 62" id="w"/><g id="b"><use transform="matrix(0.05,0,0,0.05,0,0)" xlink:href="#t"/><use transform="matrix(0.05,0,0,0.05,5.95,0)" xlink:href="#u"/><use transform="matrix(0.05,0,0,0.05,15.949999999999998,0)" xlink:href="#v"/><use transform="matrix(0.05,0,0,0.05,20.95,0)" xlink:href="#w"/><use transform="matrix(0.05,0,0,0.05,31.899999999999995,0)" xlink:href="#v"/></g><path fill="#fff" d="M62-158H24l-5-90h48" id="x"/><path fill="#fff" d="M190-63c-7 42-38 67-86 67-59 0-84-38-90-98-12-110 154-137 174-36l-49 2c-2-19-15-32-35-32-30 0-35 28-38 64-6 74 65 87 74 30" id="y"/><path fill="#fff" d="M25-224v-37h50v37H25zM25 0v-190h50V0H25" id="z"/><path fill="#fff" d="M135-150c-39-12-60 13-60 57V0H25l-1-190h47c2 13-1 29 3 40 6-28 27-53 61-41v41" id="A"/><path fill="#fff" d="M25 0v-261h50V0H25" id="B"/><path fill="#fff" d="M102-93c0 74-22 123-52 168H0C30 29 54-18 53-93c0-74-22-123-53-168h50c30 45 52 94 52 168" id="C"/><g id="c"><use transform="matrix(0.05,0,0,0.05,0,0)" xlink:href="#x"/><use transform="matrix(0.05,0,0,0.05,4.25,0)" xlink:href="#y"/><use transform="matrix(0.05,0,0,0.05,14.25,0)" xlink:href="#z"/><use transform="matrix(0.05,0,0,0.05,19.25,0)" xlink:href="#A"/><use transform="matrix(0.05,0,0,0.05,26.25,0)" xlink:href="#y"/><use transform="matrix(0.05,0,0,0.05,36.25,0)" xlink:href="#B"/><use transform="matrix(0.05,0,0,0.05,41.25,0)" xlink:href="#u"/><use transform="matrix(0.05,0,0,0.05,51.25,0)" xlink:href="#x"/><use transform="matrix(0.05,0,0,0.05,55.5,0)" xlink:href="#C"/></g><path fill="#fff" d="M230 0l2-204L168 0h-37L68-204 70 0H24v-248h70l56 185 57-185h69V0h-46" id="D"/><path fill="#fff" d="M88-194c31-1 46 15 58 34l-1-101h50l1 261h-48c-2-10 0-23-3-31C134-8 116 4 84 4 32 4 16-41 15-95c0-56 19-97 73-99zm17 164c33 0 40-30 41-66 1-37-9-64-41-64s-38 30-39 65c0 43 13 65 39 65" id="E"/><g id="d"><use transform="matrix(0.12345679012345678,0,0,0.12345679012345678,0,0)" xlink:href="#D"/><use transform="matrix(0.12345679012345678,0,0,0.12345679012345678,36.913580246913575,0)" xlink:href="#p"/><use transform="matrix(0.12345679012345678,0,0,0.12345679012345678,63.9506172839506,0)" xlink:href="#E"/><use transform="matrix(0.12345679012345678,0,0,0.12345679012345678,90.98765432098764,0)" xlink:href="#u"/><use transform="matrix(0.12345679012345678,0,0,0.12345679012345678,115.679012345679,0)" xlink:href="#B"/></g><path fill="#fff" d="M133-34C117-15 103 5 69 4 32 3 11-16 11-54c-1-60 55-63 116-61 1-26-3-47-28-47-18 1-26 9-28 27l-52-2c7-38 36-58 82-57s74 22 75 68l1 82c-1 14 12 18 25 15v27c-30 8-71 5-69-32zm-48 3c29 0 43-24 42-57-32 0-66-3-65 30 0 17 8 27 23 27" id="F"/><path fill="#fff" d="M231 0h-52l-39-155L100 0H48L-1-190h46L77-45c9-52 24-97 36-145h53l37 145 32-145h46" id="G"/><g id="e"><use transform="matrix(0.05,0,0,0.05,0,0)" xlink:href="#A"/><use transform="matrix(0.05,0,0,0.05,7,0)" xlink:href="#F"/><use transform="matrix(0.05,0,0,0.05,17,0)" xlink:href="#G"/></g><path fill="#fff" d="M135-194c87-1 58 113 63 194h-50c-7-57 23-157-34-157-59 0-34 97-39 157H25l-1-190h47c2 12-1 28 3 38 12-26 28-41 61-42" id="H"/><g id="f"><use transform="matrix(0.05,0,0,0.05,0,0)" xlink:href="#z"/><use transform="matrix(0.05,0,0,0.05,5,0)" xlink:href="#H"/><use transform="matrix(0.05,0,0,0.05,15.950000000000001,0)" xlink:href="#s"/><use transform="matrix(0.05,0,0,0.05,26.900000000000002,0)" xlink:href="#q"/><use transform="matrix(0.05,0,0,0.05,37.85,0)" xlink:href="#r"/></g><g id="g"><use transform="matrix(0.05,0,0,0.05,0,0)" xlink:href="#t"/><use transform="matrix(0.05,0,0,0.05,5.95,0)" xlink:href="#u"/><use transform="matrix(0.05,0,0,0.05,15.949999999999998,0)" xlink:href="#v"/><use transform="matrix(0.05,0,0,0.05,20.95,0)" xlink:href="#w"/><use transform="matrix(0.05,0,0,0.05,31.899999999999995,0)" xlink:href="#v"/></g><path fill="#fff" d="M135-194c52 0 70 43 70 98 0 56-19 99-73 100-30 1-46-15-58-35L72 0H24l1-261h50v104c11-23 29-37 60-37zM114-30c31 0 40-27 40-66 0-37-7-63-39-63s-41 28-41 65c0 36 8 64 40 64" id="I"/><path fill="#fff" d="M123 10C108 53 80 86 19 72V37c35 8 53-11 59-39L3-190h52l48 148c12-52 28-100 44-148h51" id="J"/><path fill="#fff" d="M137-138c1-29-70-34-71-4 15 46 118 7 119 86 1 83-164 76-172 9l43-7c4 19 20 25 44 25 33 8 57-30 24-41C81-84 22-81 20-136c-2-80 154-74 161-7" id="K"/><path fill="#fff" d="M76-54c-1 42 2 86-19 110H24C36 42 46 24 48 0H25v-54h51" id="L"/><g id="h"><use transform="matrix(0.05,0,0,0.05,0,0)" xlink:href="#I"/><use transform="matrix(0.05,0,0,0.05,10.950000000000001,0)" xlink:href="#J"/><use transform="matrix(0.05,0,0,0.05,20.950000000000003,0)" xlink:href="#r"/><use transform="matrix(0.05,0,0,0.05,26.900000000000002,0)" xlink:href="#u"/><use transform="matrix(0.05,0,0,0.05,36.900000000000006,0)" xlink:href="#K"/><use transform="matrix(0.05,0,0,0.05,46.900000000000006,0)" xlink:href="#L"/></g><path fill="#fff" d="M144 0l-44-69L55 0H2l70-98-66-92h53l41 62 40-62h54l-67 91 71 99h-54" id="M"/><g id="i"><use transform="matrix(0.05,0,0,0.05,0,0)" xlink:href="#s"/><use transform="matrix(0.05,0,0,0.05,10.950000000000001,0)" xlink:href="#z"/><use transform="matrix(0.05,0,0,0.05,15.950000000000001,0)" xlink:href="#M"/><use transform="matrix(0.05,0,0,0.05,25.950000000000003,0)" xlink:href="#u"/><use transform="matrix(0.05,0,0,0.05,35.95,0)" xlink:href="#B"/><use transform="matrix(0.05,0,0,0.05,40.95,0)" xlink:href="#K"/><use transform="matrix(0.05,0,0,0.05,50.95,0)" xlink:href="#C"/></g><path fill="#fff" d="M76-208v77h127v40H76V0H24v-248h183v40H76" id="N"/><g id="j"><use transform="matrix(0.08641975308641975,0,0,0.08641975308641975,0,0)" xlink:href="#N"/><use transform="matrix(0.08641975308641975,0,0,0.08641975308641975,18.925925925925924,0)" xlink:href="#u"/><use transform="matrix(0.08641975308641975,0,0,0.08641975308641975,36.20987654320987,0)" xlink:href="#F"/><use transform="matrix(0.08641975308641975,0,0,0.08641975308641975,53.49382716049382,0)" xlink:href="#r"/><use transform="matrix(0.08641975308641975,0,0,0.08641975308641975,63.77777777777777,0)" xlink:href="#q"/><use transform="matrix(0.08641975308641975,0,0,0.08641975308641975,82.7037037037037,0)" xlink:href="#A"/><use transform="matrix(0.08641975308641975,0,0,0.08641975308641975,94.80246913580244,0)" xlink:href="#u"/></g><path fill="#fff" d="M24 0v-248h195v40H76v63h132v40H76v65h150V0H24" id="O"/><g id="k"><use transform="matrix(0.08641975308641975,0,0,0.08641975308641975,0,0)" xlink:href="#O"/><use transform="matrix(0.08641975308641975,0,0,0.08641975308641975,20.74074074074074,0)" xlink:href="#M"/><use transform="matrix(0.08641975308641975,0,0,0.08641975308641975,38.02469135802469,0)" xlink:href="#r"/><use transform="matrix(0.08641975308641975,0,0,0.08641975308641975,48.30864197530864,0)" xlink:href="#A"/><use transform="matrix(0.08641975308641975,0,0,0.08641975308641975,60.407407407407405,0)" xlink:href="#F"/><use transform="matrix(0.08641975308641975,0,0,0.08641975308641975,77.69135802469135,0)" xlink:href="#y"/><use transform="matrix(0.08641975308641975,0,0,0.08641975308641975,94.9753086419753,0)" xlink:href="#r"/><use transform="matrix(0.08641975308641975,0,0,0.08641975308641975,105.25925925925925,0)" xlink:href="#p"/><use transform="matrix(0.08641975308641975,0,0,0.08641975308641975,124.18518518518518,0)" xlink:href="#A"/></g><path fill="#fff" d="M121-226c-27-7-43 5-38 36h38v33H83V0H34v-157H6v-33h28c-9-59 32-81 87-68v32" id="P"/><g id="l"><use transform="matrix(0.05,0,0,0.05,0,0)" xlink:href="#P"/><use transform="matrix(0.05,0,0,0.05,5.95,0)" xlink:href="#u"/><use transform="matrix(0.05,0,0,0.05,15.949999999999998,0)" xlink:href="#F"/><use transform="matrix(0.05,0,0,0.05,25.950000000000003,0)" xlink:href="#r"/><use transform="matrix(0.05,0,0,0.05,31.899999999999995,0)" xlink:href="#q"/><use transform="matrix(0.05,0,0,0.05,42.85,0)" xlink:href="#A"/><use transform="matrix(0.05,0,0,0.05,49.85,0)" xlink:href="#u"/></g><path fill="#fff" d="M128 0H69L1-190h53L99-40l48-150h52" id="Q"/><g id="m"><use transform="matrix(0.05,0,0,0.05,0,0)" xlink:href="#Q"/><use transform="matrix(0.05,0,0,0.05,10,0)" xlink:href="#u"/><use transform="matrix(0.05,0,0,0.05,20,0)" xlink:href="#y"/><use transform="matrix(0.05,0,0,0.05,30,0)" xlink:href="#r"/><use transform="matrix(0.05,0,0,0.05,35.95,0)" xlink:href="#p"/><use transform="matrix(0.05,0,0,0.05,46.900000000000006,0)" xlink:href="#A"/></g><path fill="#fff" d="M114-157C55-157 80-60 75 0H25v-261h50l-1 109c12-26 28-41 61-42 86-1 58 113 63 194h-50c-7-57 23-157-34-157" id="R"/><g id="n"><use transform="matrix(0.1111111111111111,0,0,0.1111111111111111,0,0)" xlink:href="#R"/><use transform="matrix(0.1111111111111111,0,0,0.1111111111111111,24.333333333333332,0)" xlink:href="#F"/><use transform="matrix(0.1111111111111111,0,0,0.1111111111111111,46.55555555555556,0)" xlink:href="#A"/><use transform="matrix(0.1111111111111111,0,0,0.1111111111111111,62.11111111111112,0)" xlink:href="#E"/></g><g id="o"><use transform="matrix(0.1111111111111111,0,0,0.1111111111111111,0,0)" xlink:href="#u"/><use transform="matrix(0.1111111111111111,0,0,0.1111111111111111,22.22222222222222,0)" xlink:href="#F"/><use transform="matrix(0.1111111111111111,0,0,0.1111111111111111,44.44444444444444,0)" xlink:href="#K"/><use transform="matrix(0.1111111111111111,0,0,0.1111111111111111,66.66666666666666,0)" xlink:href="#z"/><use transform="matrix(0.1111111111111111,0,0,0.1111111111111111,77.77777777777777,0)" xlink:href="#u"/><use transform="matrix(0.1111111111111111,0,0,0.1111111111111111,100,0)" xlink:href="#A"/></g></defs></g></svg>