<svg xmlns="http://www.w3.org/2000/svg" xmlns:xlink="http://www.w3.org/1999/xlink" width="1020" height="843.7"><g transform="translate(-280 -263.5)"><path d="M580 283.5h180v95.33H580z" stroke="#fff" stroke-width="4" fill="none"/><use xlink:href="#a" transform="matrix(1,0,0,1,585,288.5) translate(30.82716049382715 28.777777777777775)"/><use xlink:href="#b" transform="matrix(1,0,0,1,585,288.5) translate(13.987654320987644 71.44444444444444)"/><path d="M580 482.33h180v95.34H580z" stroke="#fff" stroke-width="4" fill="none"/><use xlink:href="#c" transform="matrix(1,0,0,1,585,487.3333333333333) translate(18.87654320987653 28.777777777777775)"/><use xlink:href="#d" transform="matrix(1,0,0,1,585,487.3333333333333) translate(46.58024691358024 71.44444444444444)"/><path d="M580 681.17h180v95.33H580z" stroke="#fff" stroke-width="4" fill="none"/><use xlink:href="#e" transform="matrix(1,0,0,1,585,686.1666666666666) translate(45.641975308641975 28.777777777777775)"/><use xlink:href="#f" transform="matrix(1,0,0,1,585,686.1666666666666) translate(31.76543209876543 71.44444444444444)"/><path d="M580 880h180v95.33H580z" stroke="#fff" stroke-width="4" fill="none"/><use xlink:href="#g" transform="matrix(1,0,0,1,585,885) translate(27.32098765432098 50.111111111111114)"/><path d="M1040 880.33h180v95.34h-180z" stroke="#fff" stroke-width="4" fill="none"/><use xlink:href="#h" transform="matrix(1,0,0,1,1045,885.3333333333334) translate(19.913580246913583 28.777777777777775)"/><use xlink:href="#i" transform="matrix(1,0,0,1,1045,885.3333333333334) translate(20.950617283950606 71.44444444444444)"/><path d="M670 577.67v101.5" stroke="#fff" stroke-width="6" fill="none"/><path d="M673 577.67h-6 6zM670 679.17l-4.64-14.27h9.28z" fill="#fff"/><path d="M672.5 681.17h-5l-6.26-19.27h17.52zm-3-13.27l.5 1.56.5-1.56z" fill="#fff"/><path d="M670 776.5V878" stroke="#fff" stroke-width="6" fill="none"/><path d="M673 776.5h-6 6zM670 878l-4.64-14.27h9.28z" fill="#fff"/><path d="M672.5 880h-5l-6.26-19.27h17.52zm-3-13.27l.5 1.56.5-1.57z" fill="#fff"/><path d="M760 927.67h278" stroke="#fff" stroke-width="6" fill="none"/><path d="M760 930.67v-6zM1038 927.67l-14.27 4.63v-9.27z" fill="#fff"/><path d="M1040 925.16v5l-19.27 6.27V918.9zm-13.27 3l1.56-.5-1.57-.5z" fill="#fff"/><path d="M670 378.83v101.5" stroke="#fff" stroke-width="6" fill="none"/><path d="M673 378.83h-6 6zM670 480.33l-4.64-14.26h9.28z" fill="#fff"/><path d="M672.5 482.33h-5l-6.26-19.26h17.52zm-3-13.26l.5 1.56.5-1.56z" fill="#fff"/><path d="M578 955h-53c-2.76 0-5-2.24-5-5V536c0-2.76 2.24-5 5-5h53" stroke="#fff" stroke-width="6" fill="none"/><path d="M580 958h-2v-6h2zM578 531l-14.27 4.64v-9.28z" fill="#fff"/><path d="M580 528.5v5l-19.27 6.26v-17.52zm-13.27 3l1.56-.5-1.57-.5z" fill="#fff"/><path d="M780 365c0-2.76 2.24-5 5-5h370c2.76 0 5 2.24 5 5v128c0 2.76-2.24 5-5 5H785c-2.76 0-5-2.24-5-5z" fill="none"/><use xlink:href="#j" transform="matrix(1,0,0,1,785,365) translate(0 37.33333333333333)"/><use xlink:href="#k" transform="matrix(1,0,0,1,785,365) translate(94.66666666666667 37.33333333333333)"/><use xlink:href="#l" transform="matrix(1,0,0,1,785,365) translate(0 69.33333333333333)"/><use xlink:href="#m" transform="matrix(1,0,0,1,785,365) translate(87.33333333333333 69.33333333333333)"/><use xlink:href="#n" transform="matrix(1,0,0,1,785,365) translate(116.96296296296296 69.33333333333333)"/><use xlink:href="#o" transform="matrix(1,0,0,1,785,365) translate(0 101.33333333333334)"/><use xlink:href="#p" transform="matrix(1,0,0,1,785,365) translate(80.00000000000001 101.33333333333334)"/><use xlink:href="#q" transform="matrix(1,0,0,1,785,365) translate(94.81481481481484 101.33333333333334)"/><use xlink:href="#r" transform="matrix(1,0,0,1,785,365) translate(208.81481481481484 101.33333333333334)"/><path d="M780 565c0-2.76 2.24-5 5-5h490c2.76 0 5 2.24 5 5v128c0 2.76-2.24 5-5 5H785c-2.76 0-5-2.24-5-5z" fill="none"/><g><use xlink:href="#s" transform="matrix(1,0,0,1,785,565) translate(0 37.33333333333333)"/><use xlink:href="#t" transform="matrix(1,0,0,1,785,565) translate(99.03703703703705 37.33333333333333)"/><use xlink:href="#u" transform="matrix(1,0,0,1,785,565) translate(193.62962962962965 37.33333333333333)"/><use xlink:href="#v" transform="matrix(1,0,0,1,785,565) translate(0 69.33333333333333)"/><use xlink:href="#w" transform="matrix(1,0,0,1,785,565) translate(22.222222222222225 69.33333333333333)"/><use xlink:href="#x" transform="matrix(1,0,0,1,785,565) translate(76.8888888888889 69.33333333333333)"/><use xlink:href="#y" transform="matrix(1,0,0,1,785,565) translate(183.33333333333334 69.33333333333333)"/><use xlink:href="#z" transform="matrix(1,0,0,1,785,565) translate(276.6666666666667 69.33333333333333)"/><use xlink:href="#v" transform="matrix(1,0,0,1,785,565) translate(0 101.33333333333334)"/><use xlink:href="#w" transform="matrix(1,0,0,1,785,565) translate(22.222222222222225 101.33333333333334)"/><use xlink:href="#A" transform="matrix(1,0,0,1,785,565) translate(76.8888888888889 101.33333333333334)"/><use xlink:href="#B" transform="matrix(1,0,0,1,785,565) translate(193.85185185185185 101.33333333333334)"/><use xlink:href="#C" transform="matrix(1,0,0,1,785,565) translate(245.7037037037037 101.33333333333334)"/><use xlink:href="#D" transform="matrix(1,0,0,1,785,565) translate(359.6296296296296 101.33333333333334)"/></g><path d="M689 806.2c0-2.75 2.24-5 5-5h241c2.76 0 5 2.25 5 5v44.1c0 2.75-2.24 5-5 5H694c-2.76 0-5-2.25-5-5z" fill="none"/><g><use xlink:href="#E" transform="matrix(1,0,0,1,694,806.2083333333333) translate(0 28.72222222222222)"/><use xlink:href="#F" transform="matrix(1,0,0,1,694,806.2083333333333) translate(51.85185185185185 28.72222222222222)"/><use xlink:href="#G" transform="matrix(1,0,0,1,694,806.2083333333333) translate(76.04938271604938 28.72222222222222)"/></g><path d="M300 706c0-2.76 2.24-5 5-5h190c2.76 0 5 2.24 5 5v85.33c0 2.76-2.24 5-5 5H305c-2.76 0-5-2.24-5-5z" fill="none"/><g><use xlink:href="#H" transform="matrix(1,0,0,1,305,706) translate(95.11111111111111 30.555555555555554)"/><use xlink:href="#I" transform="matrix(1,0,0,1,305,706) translate(77.74074074074075 67.88888888888889)"/></g><path d="M719 931c0-2.76 2.24-5 5-5h330c2.76 0 5 2.24 5 5v151.2c0 2.76-2.24 5-5 5H724c-2.76 0-5-2.24-5-5z" fill="none"/><g><use xlink:href="#J" transform="matrix(1,0,0,1,724,931) translate(71.07407407407406 33.333333333333336)"/><use xlink:href="#K" transform="matrix(1,0,0,1,724,931) translate(174.55555555555554 33.333333333333336)"/><use xlink:href="#L" transform="matrix(1,0,0,1,724,931) translate(73.29629629629628 65.33333333333334)"/><use xlink:href="#M" transform="matrix(1,0,0,1,724,931) translate(172.4074074074074 65.33333333333334)"/><use xlink:href="#N" transform="matrix(1,0,0,1,724,931) translate(102.2222222222222 97.33333333333334)"/><use xlink:href="#O" transform="matrix(1,0,0,1,724,931) translate(20.03703703703701 129.33333333333334)"/><use xlink:href="#P" transform="matrix(1,0,0,1,724,931) translate(88.11111111111109 129.33333333333334)"/><use xlink:href="#Q" transform="matrix(1,0,0,1,724,931) translate(218.25925925925927 129.33333333333334)"/></g><defs><path fill="#fff" d="M24-248c120-7 223 5 221 122C244-46 201 0 124 0H24v-248zM76-40c74 7 117-18 117-86 0-67-45-88-117-82v168" id="R"/><path fill="#fff" d="M185-48c-13 30-37 53-82 52C43 2 14-33 14-96s30-98 90-98c62 0 83 45 84 108H66c0 31 8 55 39 56 18 0 30-7 34-22zm-45-69c5-46-57-63-70-21-2 6-4 13-4 21h74" id="S"/><path fill="#fff" d="M121-226c-27-7-43 5-38 36h38v33H83V0H34v-157H6v-33h28c-9-59 32-81 87-68v32" id="T"/><path fill="#fff" d="M25-224v-37h50v37H25zM25 0v-190h50V0H25" id="U"/><path fill="#fff" d="M135-194c87-1 58 113 63 194h-50c-7-57 23-157-34-157-59 0-34 97-39 157H25l-1-190h47c2 12-1 28 3 38 12-26 28-41 61-42" id="V"/><g id="a"><use transform="matrix(0.09876543209876544,0,0,0.09876543209876544,0,0)" xlink:href="#R"/><use transform="matrix(0.09876543209876544,0,0,0.09876543209876544,25.58024691358025,0)" xlink:href="#S"/><use transform="matrix(0.09876543209876544,0,0,0.09876543209876544,45.33333333333334,0)" xlink:href="#T"/><use transform="matrix(0.09876543209876544,0,0,0.09876543209876544,57.08641975308644,0)" xlink:href="#U"/><use transform="matrix(0.09876543209876544,0,0,0.09876543209876544,66.96296296296298,0)" xlink:href="#V"/><use transform="matrix(0.09876543209876544,0,0,0.09876543209876544,88.59259259259261,0)" xlink:href="#S"/></g><path fill="#fff" d="M24-248c93 1 206-16 204 79-1 75-69 88-152 82V0H24v-248zm52 121c47 0 100 7 100-41 0-47-54-39-100-39v80" id="W"/><path fill="#fff" d="M135-150c-39-12-60 13-60 57V0H25l-1-190h47c2 13-1 29 3 40 6-28 27-53 61-41v41" id="X"/><path fill="#fff" d="M110-194c64 0 96 36 96 99 0 64-35 99-97 99-61 0-95-36-95-99 0-62 34-99 96-99zm-1 164c35 0 45-28 45-65 0-40-10-65-43-65-34 0-45 26-45 65 0 36 10 65 43 65" id="Y"/><path fill="#fff" d="M135-194c52 0 70 43 70 98 0 56-19 99-73 100-30 1-46-15-58-35L72 0H24l1-261h50v104c11-23 29-37 60-37zM114-30c31 0 40-27 40-66 0-37-7-63-39-63s-41 28-41 65c0 36 8 64 40 64" id="Z"/><path fill="#fff" d="M25 0v-261h50V0H25" id="aa"/><path fill="#fff" d="M220-157c-53 9-28 100-34 157h-49v-107c1-27-5-49-29-50C55-147 81-57 75 0H25l-1-190h47c2 12-1 28 3 38 10-53 101-56 108 0 13-22 24-43 59-42 82 1 51 116 57 194h-49v-107c-1-25-5-48-29-50" id="ab"/><g id="b"><use transform="matrix(0.09876543209876544,0,0,0.09876543209876544,0,0)" xlink:href="#W"/><use transform="matrix(0.09876543209876544,0,0,0.09876543209876544,23.703703703703706,0)" xlink:href="#X"/><use transform="matrix(0.09876543209876544,0,0,0.09876543209876544,37.53086419753087,0)" xlink:href="#Y"/><use transform="matrix(0.09876543209876544,0,0,0.09876543209876544,59.1604938271605,0)" xlink:href="#Z"/><use transform="matrix(0.09876543209876544,0,0,0.09876543209876544,80.79012345679013,0)" xlink:href="#aa"/><use transform="matrix(0.09876543209876544,0,0,0.09876543209876544,90.66666666666667,0)" xlink:href="#S"/><use transform="matrix(0.09876543209876544,0,0,0.09876543209876544,110.41975308641976,0)" xlink:href="#ab"/></g><path fill="#fff" d="M135-194c53 0 70 44 70 98 0 56-19 98-73 100-31 1-45-17-59-34 3 33 2 69 2 105H25l-1-265h48c2 10 0 23 3 31 11-24 29-35 60-35zM114-30c33 0 39-31 40-66 0-38-9-64-40-64-56 0-55 130 0 130" id="ac"/><path fill="#fff" d="M133-34C117-15 103 5 69 4 32 3 11-16 11-54c-1-60 55-63 116-61 1-26-3-47-28-47-18 1-26 9-28 27l-52-2c7-38 36-58 82-57s74 22 75 68l1 82c-1 14 12 18 25 15v27c-30 8-71 5-69-32zm-48 3c29 0 43-24 42-57-32 0-66-3-65 30 0 17 8 27 23 27" id="ad"/><g id="c"><use transform="matrix(0.09876543209876544,0,0,0.09876543209876544,0,0)" xlink:href="#W"/><use transform="matrix(0.09876543209876544,0,0,0.09876543209876544,23.703703703703706,0)" xlink:href="#X"/><use transform="matrix(0.09876543209876544,0,0,0.09876543209876544,37.53086419753087,0)" xlink:href="#S"/><use transform="matrix(0.09876543209876544,0,0,0.09876543209876544,57.283950617283956,0)" xlink:href="#ac"/><use transform="matrix(0.09876543209876544,0,0,0.09876543209876544,78.91358024691358,0)" xlink:href="#ad"/><use transform="matrix(0.09876543209876544,0,0,0.09876543209876544,98.66666666666667,0)" xlink:href="#X"/><use transform="matrix(0.09876543209876544,0,0,0.09876543209876544,112.49382716049384,0)" xlink:href="#S"/></g><path fill="#fff" d="M115-3C79 11 28 4 28-45v-112H4v-33h27l15-45h31v45h36v33H77v99c-1 23 16 31 38 25v30" id="ae"/><g id="d"><use transform="matrix(0.09876543209876544,0,0,0.09876543209876544,0,0)" xlink:href="#R"/><use transform="matrix(0.09876543209876544,0,0,0.09876543209876544,25.58024691358025,0)" xlink:href="#ad"/><use transform="matrix(0.09876543209876544,0,0,0.09876543209876544,45.33333333333334,0)" xlink:href="#ae"/><use transform="matrix(0.09876543209876544,0,0,0.09876543209876544,57.08641975308644,0)" xlink:href="#ad"/></g><path fill="#fff" d="M169-182c-1-43-94-46-97-3 18 66 151 10 154 114 3 95-165 93-204 36-6-8-10-19-12-30l50-8c3 46 112 56 116 5-17-69-150-10-154-114-4-87 153-88 188-35 5 8 8 18 10 28" id="af"/><g id="e"><use transform="matrix(0.09876543209876544,0,0,0.09876543209876544,0,0)" xlink:href="#af"/><use transform="matrix(0.09876543209876544,0,0,0.09876543209876544,23.703703703703706,0)" xlink:href="#ac"/><use transform="matrix(0.09876543209876544,0,0,0.09876543209876544,45.333333333333336,0)" xlink:href="#Y"/><use transform="matrix(0.09876543209876544,0,0,0.09876543209876544,66.96296296296296,0)" xlink:href="#ae"/></g><path fill="#fff" d="M67-125c0 53 21 87 73 88 37 1 54-22 65-47l45 17C233-25 199 4 140 4 58 4 20-42 15-125 8-235 124-281 211-232c18 10 29 29 36 50l-46 12c-8-25-30-41-62-41-52 0-71 34-72 86" id="ag"/><path fill="#fff" d="M114-157C55-157 80-60 75 0H25v-261h50l-1 109c12-26 28-41 61-42 86-1 58 113 63 194h-50c-7-57 23-157-34-157" id="ah"/><path fill="#fff" d="M190-63c-7 42-38 67-86 67-59 0-84-38-90-98-12-110 154-137 174-36l-49 2c-2-19-15-32-35-32-30 0-35 28-38 64-6 74 65 87 74 30" id="ai"/><path fill="#fff" d="M147 0L96-86 75-71V0H25v-261h50v150l67-79h53l-66 74L201 0h-54" id="aj"/><g id="f"><use transform="matrix(0.09876543209876544,0,0,0.09876543209876544,0,0)" xlink:href="#ag"/><use transform="matrix(0.09876543209876544,0,0,0.09876543209876544,25.58024691358025,0)" xlink:href="#ah"/><use transform="matrix(0.09876543209876544,0,0,0.09876543209876544,47.20987654320988,0)" xlink:href="#S"/><use transform="matrix(0.09876543209876544,0,0,0.09876543209876544,66.96296296296296,0)" xlink:href="#ai"/><use transform="matrix(0.09876543209876544,0,0,0.09876543209876544,86.71604938271605,0)" xlink:href="#aj"/></g><path fill="#fff" d="M136-208V0H84v-208H4v-40h212v40h-80" id="ak"/><path fill="#fff" d="M85 4C-2 5 27-109 22-190h50c7 57-23 150 33 157 60-5 35-97 40-157h50l1 190h-47c-2-12 1-28-3-38-12 25-28 42-61 42" id="al"/><path fill="#fff" d="M195-6C206 82 75 100 31 46c-4-6-6-13-8-21l49-6c3 16 16 24 34 25 40 0 42-37 40-79-11 22-30 35-61 35-53 0-70-43-70-97 0-56 18-96 73-97 30 0 46 14 59 34l2-30h47zm-90-29c32 0 41-27 41-63 0-35-9-62-40-62-32 0-39 29-40 63 0 36 9 62 39 62" id="am"/><g id="g"><use transform="matrix(0.09876543209876544,0,0,0.09876543209876544,0,0)" xlink:href="#ak"/><use transform="matrix(0.09876543209876544,0,0,0.09876543209876544,18.962962962962962,0)" xlink:href="#al"/><use transform="matrix(0.09876543209876544,0,0,0.09876543209876544,40.592592592592595,0)" xlink:href="#V"/><use transform="matrix(0.09876543209876544,0,0,0.09876543209876544,62.22222222222223,0)" xlink:href="#U"/><use transform="matrix(0.09876543209876544,0,0,0.09876543209876544,72.09876543209877,0)" xlink:href="#V"/><use transform="matrix(0.09876543209876544,0,0,0.09876543209876544,93.7283950617284,0)" xlink:href="#am"/></g><path fill="#fff" d="M137-138c1-29-70-34-71-4 15 46 118 7 119 86 1 83-164 76-172 9l43-7c4 19 20 25 44 25 33 8 57-30 24-41C81-84 22-81 20-136c-2-80 154-74 161-7" id="an"/><g id="h"><use transform="matrix(0.09876543209876544,0,0,0.09876543209876544,0,0)" xlink:href="#W"/><use transform="matrix(0.09876543209876544,0,0,0.09876543209876544,23.703703703703706,0)" xlink:href="#X"/><use transform="matrix(0.09876543209876544,0,0,0.09876543209876544,37.53086419753087,0)" xlink:href="#S"/><use transform="matrix(0.09876543209876544,0,0,0.09876543209876544,57.283950617283956,0)" xlink:href="#an"/><use transform="matrix(0.09876543209876544,0,0,0.09876543209876544,77.03703703703704,0)" xlink:href="#S"/><use transform="matrix(0.09876543209876544,0,0,0.09876543209876544,96.79012345679013,0)" xlink:href="#V"/><use transform="matrix(0.09876543209876544,0,0,0.09876543209876544,118.41975308641976,0)" xlink:href="#ae"/></g><path fill="#fff" d="M240-174c0 40-23 61-54 70L253 0h-59l-57-94H76V0H24v-248c93 4 217-23 216 74zM76-134c48-2 112 12 112-38 0-48-66-32-112-35v73" id="ao"/><g id="i"><use transform="matrix(0.09876543209876544,0,0,0.09876543209876544,0,0)" xlink:href="#ao"/><use transform="matrix(0.09876543209876544,0,0,0.09876543209876544,25.58024691358025,0)" xlink:href="#S"/><use transform="matrix(0.09876543209876544,0,0,0.09876543209876544,45.33333333333334,0)" xlink:href="#an"/><use transform="matrix(0.09876543209876544,0,0,0.09876543209876544,65.08641975308643,0)" xlink:href="#al"/><use transform="matrix(0.09876543209876544,0,0,0.09876543209876544,86.71604938271606,0)" xlink:href="#aa"/><use transform="matrix(0.09876543209876544,0,0,0.09876543209876544,96.59259259259261,0)" xlink:href="#ae"/><use transform="matrix(0.09876543209876544,0,0,0.09876543209876544,108.34567901234568,0)" xlink:href="#an"/></g><path fill="#fff" d="M85-194c31 0 48 13 60 33l-1-100h32l1 261h-30c-2-10 0-23-3-31C134-8 116 4 85 4 32 4 16-35 15-94c0-66 23-100 70-100zm9 24c-40 0-46 34-46 75 0 40 6 74 45 74 42 0 51-32 51-76 0-42-9-74-50-73" id="ap"/><path fill="#fff" d="M100-194c62-1 85 37 85 99 1 63-27 99-86 99S16-35 15-95c0-66 28-99 85-99zM99-20c44 1 53-31 53-75 0-43-8-75-51-75s-53 32-53 75 10 74 51 75" id="aq"/><path fill="#fff" d="M210-169c-67 3-38 105-44 169h-31v-121c0-29-5-50-35-48C34-165 62-65 56 0H25l-1-190h30c1 10-1 24 2 32 10-44 99-50 107 0 11-21 27-35 58-36 85-2 47 119 55 194h-31v-121c0-29-5-49-35-48" id="ar"/><path fill="#fff" d="M141-36C126-15 110 5 73 4 37 3 15-17 15-53c-1-64 63-63 125-63 3-35-9-54-41-54-24 1-41 7-42 31l-33-3c5-37 33-52 76-52 45 0 72 20 72 64v82c-1 20 7 32 28 27v20c-31 9-61-2-59-35zM48-53c0 20 12 33 32 33 41-3 63-29 60-74-43 2-92-5-92 41" id="as"/><path fill="#fff" d="M24-231v-30h32v30H24zM24 0v-190h32V0H24" id="at"/><path fill="#fff" d="M117-194c89-4 53 116 60 194h-32v-121c0-31-8-49-39-48C34-167 62-67 57 0H25l-1-190h30c1 10-1 24 2 32 11-22 29-35 61-36" id="au"/><g id="j"><use transform="matrix(0.07407407407407408,0,0,0.07407407407407408,0,0)" xlink:href="#ap"/><use transform="matrix(0.07407407407407408,0,0,0.07407407407407408,14.814814814814817,0)" xlink:href="#aq"/><use transform="matrix(0.07407407407407408,0,0,0.07407407407407408,29.629629629629633,0)" xlink:href="#ar"/><use transform="matrix(0.07407407407407408,0,0,0.07407407407407408,51.777777777777786,0)" xlink:href="#as"/><use transform="matrix(0.07407407407407408,0,0,0.07407407407407408,66.59259259259261,0)" xlink:href="#at"/><use transform="matrix(0.07407407407407408,0,0,0.07407407407407408,72.44444444444446,0)" xlink:href="#au"/></g><path fill="#fff" d="M143 0L79-87 56-68V0H24v-261h32v163l83-92h37l-77 82L181 0h-38" id="av"/><path fill="#fff" d="M206 0h-36l-40-164L89 0H53L-1-190h32L70-26l43-164h34l41 164 42-164h31" id="aw"/><path fill="#fff" d="M24 0v-261h32V0H24" id="ax"/><path fill="#fff" d="M100-194c63 0 86 42 84 106H49c0 40 14 67 53 68 26 1 43-12 49-29l28 8c-11 28-37 45-77 45C44 4 14-33 15-96c1-61 26-98 85-98zm52 81c6-60-76-77-97-28-3 7-6 17-6 28h103" id="ay"/><path fill="#fff" d="M177-190C167-65 218 103 67 71c-23-6-38-20-44-43l32-5c15 47 100 32 89-28v-30C133-14 115 1 83 1 29 1 15-40 15-95c0-56 16-97 71-98 29-1 48 16 59 35 1-10 0-23 2-32h30zM94-22c36 0 50-32 50-73 0-42-14-75-50-75-39 0-46 34-46 75s6 73 46 73" id="az"/><path fill="#fff" d="M68-38c1 34 0 65-14 84H32c9-13 17-26 17-46H33v-38h35" id="aA"/><g id="k"><use transform="matrix(0.07407407407407408,0,0,0.07407407407407408,0,0)" xlink:href="#av"/><use transform="matrix(0.07407407407407408,0,0,0.07407407407407408,13.333333333333336,0)" xlink:href="#au"/><use transform="matrix(0.07407407407407408,0,0,0.07407407407407408,28.148148148148152,0)" xlink:href="#aq"/><use transform="matrix(0.07407407407407408,0,0,0.07407407407407408,42.96296296296297,0)" xlink:href="#aw"/><use transform="matrix(0.07407407407407408,0,0,0.07407407407407408,62.14814814814816,0)" xlink:href="#ax"/><use transform="matrix(0.07407407407407408,0,0,0.07407407407407408,68,0)" xlink:href="#ay"/><use transform="matrix(0.07407407407407408,0,0,0.07407407407407408,82.81481481481481,0)" xlink:href="#ap"/><use transform="matrix(0.07407407407407408,0,0,0.07407407407407408,97.62962962962962,0)" xlink:href="#az"/><use transform="matrix(0.07407407407407408,0,0,0.07407407407407408,112.44444444444443,0)" xlink:href="#ay"/><use transform="matrix(0.07407407407407408,0,0,0.07407407407407408,127.25925925925924,0)" xlink:href="#aA"/></g><path fill="#fff" d="M135-143c-3-34-86-38-87 0 15 53 115 12 119 90S17 21 10-45l28-5c4 36 97 45 98 0-10-56-113-15-118-90-4-57 82-63 122-42 12 7 21 19 24 35" id="aB"/><path fill="#fff" d="M84 4C-5 8 30-112 23-190h32v120c0 31 7 50 39 49 72-2 45-101 50-169h31l1 190h-30c-1-10 1-25-2-33-11 22-28 36-60 37" id="aC"/><path fill="#fff" d="M114-163C36-179 61-72 57 0H25l-1-190h30c1 12-1 29 2 39 6-27 23-49 58-41v29" id="aD"/><path fill="#fff" d="M96-169c-40 0-48 33-48 73s9 75 48 75c24 0 41-14 43-38l32 2c-6 37-31 61-74 61-59 0-76-41-82-99-10-93 101-131 147-64 4 7 5 14 7 22l-32 3c-4-21-16-35-41-35" id="aE"/><g id="l"><use transform="matrix(0.07407407407407408,0,0,0.07407407407407408,0,0)" xlink:href="#aB"/><use transform="matrix(0.07407407407407408,0,0,0.07407407407407408,13.333333333333336,0)" xlink:href="#aq"/><use transform="matrix(0.07407407407407408,0,0,0.07407407407407408,28.148148148148152,0)" xlink:href="#aC"/><use transform="matrix(0.07407407407407408,0,0,0.07407407407407408,42.96296296296297,0)" xlink:href="#aD"/><use transform="matrix(0.07407407407407408,0,0,0.07407407407407408,51.777777777777786,0)" xlink:href="#aE"/><use transform="matrix(0.07407407407407408,0,0,0.07407407407407408,65.11111111111111,0)" xlink:href="#ay"/></g><path fill="#fff" d="M101-234c-31-9-42 10-38 44h38v23H63V0H32v-167H5v-23h27c-7-52 17-82 69-68v24" id="aF"/><g id="m"><use transform="matrix(0.07407407407407408,0,0,0.07407407407407408,0,0)" xlink:href="#aq"/><use transform="matrix(0.07407407407407408,0,0,0.07407407407407408,14.814814814814817,0)" xlink:href="#aF"/></g><path fill="#fff" d="M59-47c-2 24 18 29 38 22v24C64 9 27 4 27-40v-127H5v-23h24l9-43h21v43h35v23H59v120" id="aG"/><g id="n"><use transform="matrix(0.07407407407407408,0,0,0.07407407407407408,0,0)" xlink:href="#ap"/><use transform="matrix(0.07407407407407408,0,0,0.07407407407407408,14.814814814814817,0)" xlink:href="#as"/><use transform="matrix(0.07407407407407408,0,0,0.07407407407407408,29.629629629629633,0)" xlink:href="#aG"/><use transform="matrix(0.07407407407407408,0,0,0.07407407407407408,37.03703703703704,0)" xlink:href="#as"/><use transform="matrix(0.07407407407407408,0,0,0.07407407407407408,51.85185185185186,0)" xlink:href="#aA"/></g><path fill="#fff" d="M115-194c55 1 70 41 70 98S169 2 115 4C84 4 66-9 55-30l1 105H24l-1-265h31l2 30c10-21 28-34 59-34zm-8 174c40 0 45-34 45-75s-6-73-45-74c-42 0-51 32-51 76 0 43 10 73 51 73" id="aH"/><g id="o"><use transform="matrix(0.07407407407407408,0,0,0.07407407407407408,0,0)" xlink:href="#aB"/><use transform="matrix(0.07407407407407408,0,0,0.07407407407407408,13.333333333333336,0)" xlink:href="#aH"/><use transform="matrix(0.07407407407407408,0,0,0.07407407407407408,28.148148148148152,0)" xlink:href="#ay"/><use transform="matrix(0.07407407407407408,0,0,0.07407407407407408,42.96296296296297,0)" xlink:href="#ay"/><use transform="matrix(0.07407407407407408,0,0,0.07407407407407408,57.777777777777786,0)" xlink:href="#ap"/></g><path fill="#fff" d="M0 4l72-265h28L28 4H0" id="aI"/><use transform="matrix(0.07407407407407408,0,0,0.07407407407407408,0,0)" xlink:href="#aI" id="p"/><path fill="#fff" d="M179-190L93 31C79 59 56 82 12 73V49c39 6 53-20 64-50L1-190h34L92-34l54-156h33" id="aJ"/><g id="q"><use transform="matrix(0.07407407407407408,0,0,0.07407407407407408,0,0)" xlink:href="#as"/><use transform="matrix(0.07407407407407408,0,0,0.07407407407407408,14.814814814814817,0)" xlink:href="#aE"/><use transform="matrix(0.07407407407407408,0,0,0.07407407407407408,28.148148148148152,0)" xlink:href="#aE"/><use transform="matrix(0.07407407407407408,0,0,0.07407407407407408,41.48148148148149,0)" xlink:href="#aC"/><use transform="matrix(0.07407407407407408,0,0,0.07407407407407408,56.296296296296305,0)" xlink:href="#aD"/><use transform="matrix(0.07407407407407408,0,0,0.07407407407407408,65.11111111111111,0)" xlink:href="#as"/><use transform="matrix(0.07407407407407408,0,0,0.07407407407407408,79.92592592592592,0)" xlink:href="#aE"/><use transform="matrix(0.07407407407407408,0,0,0.07407407407407408,93.25925925925927,0)" xlink:href="#aJ"/></g><path fill="#fff" d="M145-31C134-9 116 4 85 4 32 4 16-35 15-94c0-59 17-99 70-100 32-1 48 14 60 33 0-11-1-24 2-32h30l-1 268h-32zM93-21c41 0 51-33 51-76s-8-73-50-73c-40 0-46 35-46 75s5 74 45 74" id="aK"/><g id="r"><use transform="matrix(0.07407407407407408,0,0,0.07407407407407408,0,0)" xlink:href="#aD"/><use transform="matrix(0.07407407407407408,0,0,0.07407407407407408,8.814814814814817,0)" xlink:href="#ay"/><use transform="matrix(0.07407407407407408,0,0,0.07407407407407408,23.629629629629633,0)" xlink:href="#aK"/><use transform="matrix(0.07407407407407408,0,0,0.07407407407407408,38.44444444444445,0)" xlink:href="#aC"/><use transform="matrix(0.07407407407407408,0,0,0.07407407407407408,53.25925925925927,0)" xlink:href="#at"/><use transform="matrix(0.07407407407407408,0,0,0.07407407407407408,59.11111111111112,0)" xlink:href="#aD"/><use transform="matrix(0.07407407407407408,0,0,0.07407407407407408,67.92592592592594,0)" xlink:href="#ay"/><use transform="matrix(0.07407407407407408,0,0,0.07407407407407408,82.74074074074076,0)" xlink:href="#ar"/><use transform="matrix(0.07407407407407408,0,0,0.07407407407407408,104.88888888888891,0)" xlink:href="#ay"/><use transform="matrix(0.07407407407407408,0,0,0.07407407407407408,119.70370370370372,0)" xlink:href="#au"/><use transform="matrix(0.07407407407407408,0,0,0.07407407407407408,134.51851851851853,0)" xlink:href="#aG"/><use transform="matrix(0.07407407407407408,0,0,0.07407407407407408,141.92592592592595,0)" xlink:href="#aB"/></g><path fill="#fff" d="M115-194c53 0 69 39 70 98 0 66-23 100-70 100C84 3 66-7 56-30L54 0H23l1-261h32v101c10-23 28-34 59-34zm-8 174c40 0 45-34 45-75 0-40-5-75-45-74-42 0-51 32-51 76 0 43 10 73 51 73" id="aL"/><g id="s"><use transform="matrix(0.07407407407407408,0,0,0.07407407407407408,0,0)" xlink:href="#ax"/><use transform="matrix(0.07407407407407408,0,0,0.07407407407407408,5.851851851851853,0)" xlink:href="#as"/><use transform="matrix(0.07407407407407408,0,0,0.07407407407407408,20.666666666666668,0)" xlink:href="#aL"/><use transform="matrix(0.07407407407407408,0,0,0.07407407407407408,35.48148148148149,0)" xlink:href="#ay"/><use transform="matrix(0.07407407407407408,0,0,0.07407407407407408,50.296296296296305,0)" xlink:href="#ax"/><use transform="matrix(0.07407407407407408,0,0,0.07407407407407408,56.14814814814815,0)" xlink:href="#ax"/><use transform="matrix(0.07407407407407408,0,0,0.07407407407407408,62.000000000000014,0)" xlink:href="#ay"/><use transform="matrix(0.07407407407407408,0,0,0.07407407407407408,76.81481481481484,0)" xlink:href="#ap"/></g><g id="t"><use transform="matrix(0.07407407407407408,0,0,0.07407407407407408,0,0)" xlink:href="#aG"/><use transform="matrix(0.07407407407407408,0,0,0.07407407407407408,7.407407407407408,0)" xlink:href="#aD"/><use transform="matrix(0.07407407407407408,0,0,0.07407407407407408,16.222222222222225,0)" xlink:href="#as"/><use transform="matrix(0.07407407407407408,0,0,0.07407407407407408,31.03703703703704,0)" xlink:href="#at"/><use transform="matrix(0.07407407407407408,0,0,0.07407407407407408,36.88888888888889,0)" xlink:href="#au"/><use transform="matrix(0.07407407407407408,0,0,0.07407407407407408,51.70370370370371,0)" xlink:href="#at"/><use transform="matrix(0.07407407407407408,0,0,0.07407407407407408,57.555555555555564,0)" xlink:href="#au"/><use transform="matrix(0.07407407407407408,0,0,0.07407407407407408,72.37037037037038,0)" xlink:href="#az"/></g><path fill="#fff" d="M87 75C49 33 22-17 22-94c0-76 28-126 65-167h31c-38 41-64 92-64 168S80 34 118 75H87" id="aM"/><path fill="#fff" d="M33-261c38 41 65 92 65 168S71 34 33 75H2C39 34 66-17 66-93S39-220 2-261h31" id="aN"/><g id="u"><use transform="matrix(0.07407407407407408,0,0,0.07407407407407408,0,0)" xlink:href="#ap"/><use transform="matrix(0.07407407407407408,0,0,0.07407407407407408,14.814814814814817,0)" xlink:href="#as"/><use transform="matrix(0.07407407407407408,0,0,0.07407407407407408,29.629629629629633,0)" xlink:href="#aG"/><use transform="matrix(0.07407407407407408,0,0,0.07407407407407408,37.03703703703704,0)" xlink:href="#as"/><use transform="matrix(0.07407407407407408,0,0,0.07407407407407408,51.85185185185186,0)" xlink:href="#aB"/><use transform="matrix(0.07407407407407408,0,0,0.07407407407407408,65.18518518518519,0)" xlink:href="#ay"/><use transform="matrix(0.07407407407407408,0,0,0.07407407407407408,80,0)" xlink:href="#aG"/><use transform="matrix(0.07407407407407408,0,0,0.07407407407407408,87.4074074074074,0)" xlink:href="#aM"/><use transform="matrix(0.07407407407407408,0,0,0.07407407407407408,96.22222222222223,0)" xlink:href="#aB"/><use transform="matrix(0.07407407407407408,0,0,0.07407407407407408,109.55555555555557,0)" xlink:href="#aN"/></g><path fill="#fff" d="M106-169C34-169 62-67 57 0H25v-261h32l-1 103c12-21 28-36 61-36 89 0 53 116 60 194h-32v-121c2-32-8-49-39-48" id="aO"/><g id="w"><use transform="matrix(0.07407407407407408,0,0,0.07407407407407408,0,0)" xlink:href="#aw"/><use transform="matrix(0.07407407407407408,0,0,0.07407407407407408,19.185185185185187,0)" xlink:href="#at"/><use transform="matrix(0.07407407407407408,0,0,0.07407407407407408,25.037037037037035,0)" xlink:href="#aG"/><use transform="matrix(0.07407407407407408,0,0,0.07407407407407408,32.44444444444444,0)" xlink:href="#aO"/></g><g id="x"><use transform="matrix(0.07407407407407408,0,0,0.07407407407407408,0,0)" xlink:href="#aE"/><use transform="matrix(0.07407407407407408,0,0,0.07407407407407408,13.333333333333336,0)" xlink:href="#as"/><use transform="matrix(0.07407407407407408,0,0,0.07407407407407408,28.148148148148152,0)" xlink:href="#aD"/><use transform="matrix(0.07407407407407408,0,0,0.07407407407407408,36.96296296296297,0)" xlink:href="#ay"/><use transform="matrix(0.07407407407407408,0,0,0.07407407407407408,51.777777777777786,0)" xlink:href="#aF"/><use transform="matrix(0.07407407407407408,0,0,0.07407407407407408,59.18518518518519,0)" xlink:href="#aC"/><use transform="matrix(0.07407407407407408,0,0,0.07407407407407408,74,0)" xlink:href="#ax"/><use transform="matrix(0.07407407407407408,0,0,0.07407407407407408,79.85185185185185,0)" xlink:href="#ax"/><use transform="matrix(0.07407407407407408,0,0,0.07407407407407408,85.7037037037037,0)" xlink:href="#aJ"/></g><g id="y"><use transform="matrix(0.07407407407407408,0,0,0.07407407407407408,0,0)" xlink:href="#aE"/><use transform="matrix(0.07407407407407408,0,0,0.07407407407407408,13.333333333333336,0)" xlink:href="#aO"/><use transform="matrix(0.07407407407407408,0,0,0.07407407407407408,28.148148148148152,0)" xlink:href="#aq"/><use transform="matrix(0.07407407407407408,0,0,0.07407407407407408,42.96296296296297,0)" xlink:href="#aB"/><use transform="matrix(0.07407407407407408,0,0,0.07407407407407408,56.296296296296305,0)" xlink:href="#ay"/><use transform="matrix(0.07407407407407408,0,0,0.07407407407407408,71.11111111111111,0)" xlink:href="#au"/></g><g id="z"><use transform="matrix(0.07407407407407408,0,0,0.07407407407407408,0,0)" xlink:href="#aF"/><use transform="matrix(0.07407407407407408,0,0,0.07407407407407408,7.407407407407408,0)" xlink:href="#ay"/><use transform="matrix(0.07407407407407408,0,0,0.07407407407407408,22.222222222222225,0)" xlink:href="#as"/><use transform="matrix(0.07407407407407408,0,0,0.07407407407407408,37.03703703703704,0)" xlink:href="#aG"/><use transform="matrix(0.07407407407407408,0,0,0.07407407407407408,44.44444444444444,0)" xlink:href="#aC"/><use transform="matrix(0.07407407407407408,0,0,0.07407407407407408,59.25925925925926,0)" xlink:href="#aD"/><use transform="matrix(0.07407407407407408,0,0,0.07407407407407408,68.07407407407408,0)" xlink:href="#ay"/><use transform="matrix(0.07407407407407408,0,0,0.07407407407407408,82.88888888888889,0)" xlink:href="#aB"/></g><g id="A"><use transform="matrix(0.07407407407407408,0,0,0.07407407407407408,0,0)" xlink:href="#aB"/><use transform="matrix(0.07407407407407408,0,0,0.07407407407407408,13.333333333333336,0)" xlink:href="#aE"/><use transform="matrix(0.07407407407407408,0,0,0.07407407407407408,26.66666666666667,0)" xlink:href="#aD"/><use transform="matrix(0.07407407407407408,0,0,0.07407407407407408,35.48148148148149,0)" xlink:href="#aC"/><use transform="matrix(0.07407407407407408,0,0,0.07407407407407408,50.296296296296305,0)" xlink:href="#aL"/><use transform="matrix(0.07407407407407408,0,0,0.07407407407407408,65.11111111111111,0)" xlink:href="#aL"/><use transform="matrix(0.07407407407407408,0,0,0.07407407407407408,79.92592592592592,0)" xlink:href="#ay"/><use transform="matrix(0.07407407407407408,0,0,0.07407407407407408,94.74074074074073,0)" xlink:href="#ap"/></g><g id="B"><use transform="matrix(0.07407407407407408,0,0,0.07407407407407408,0,0)" xlink:href="#as"/><use transform="matrix(0.07407407407407408,0,0,0.07407407407407408,14.814814814814817,0)" xlink:href="#au"/><use transform="matrix(0.07407407407407408,0,0,0.07407407407407408,29.629629629629633,0)" xlink:href="#ap"/></g><path fill="#fff" d="M108 0H70L1-190h34L89-25l56-165h34" id="aP"/><g id="C"><use transform="matrix(0.07407407407407408,0,0,0.07407407407407408,0,0)" xlink:href="#aP"/><use transform="matrix(0.07407407407407408,0,0,0.07407407407407408,13.333333333333336,0)" xlink:href="#as"/><use transform="matrix(0.07407407407407408,0,0,0.07407407407407408,28.148148148148152,0)" xlink:href="#ax"/><use transform="matrix(0.07407407407407408,0,0,0.07407407407407408,34.00000000000001,0)" xlink:href="#at"/><use transform="matrix(0.07407407407407408,0,0,0.07407407407407408,39.85185185185187,0)" xlink:href="#ap"/><use transform="matrix(0.07407407407407408,0,0,0.07407407407407408,54.666666666666686,0)" xlink:href="#as"/><use transform="matrix(0.07407407407407408,0,0,0.07407407407407408,69.4814814814815,0)" xlink:href="#aG"/><use transform="matrix(0.07407407407407408,0,0,0.07407407407407408,76.8888888888889,0)" xlink:href="#ay"/><use transform="matrix(0.07407407407407408,0,0,0.07407407407407408,91.70370370370371,0)" xlink:href="#ap"/></g><g id="D"><use transform="matrix(0.07407407407407408,0,0,0.07407407407407408,0,0)" xlink:href="#ap"/><use transform="matrix(0.07407407407407408,0,0,0.07407407407407408,14.814814814814817,0)" xlink:href="#as"/><use transform="matrix(0.07407407407407408,0,0,0.07407407407407408,29.629629629629633,0)" xlink:href="#aG"/><use transform="matrix(0.07407407407407408,0,0,0.07407407407407408,37.03703703703704,0)" xlink:href="#as"/></g><g id="E"><use transform="matrix(0.08641975308641975,0,0,0.08641975308641975,0,0)" xlink:href="#aG"/><use transform="matrix(0.08641975308641975,0,0,0.08641975308641975,8.641975308641975,0)" xlink:href="#aq"/><use transform="matrix(0.08641975308641975,0,0,0.08641975308641975,25.925925925925924,0)" xlink:href="#aH"/></g><path fill="#fff" d="M124 0L87-78 21 0h-35l86-98-46-92h33l34 74 61-74h37l-83 92 50 98h-34" id="aQ"/><use transform="matrix(0.08641975308641975,0,0,0.08641975308641975,0,0)" xlink:href="#aQ" id="F"/><g id="G"><use transform="matrix(0.08641975308641975,0,0,0.08641975308641975,0,0)" xlink:href="#as"/><use transform="matrix(0.08641975308641975,0,0,0.08641975308641975,17.28395061728395,0)" xlink:href="#ax"/><use transform="matrix(0.08641975308641975,0,0,0.08641975308641975,24.111111111111104,0)" xlink:href="#az"/><use transform="matrix(0.08641975308641975,0,0,0.08641975308641975,41.395061728395056,0)" xlink:href="#aq"/><use transform="matrix(0.08641975308641975,0,0,0.08641975308641975,58.679012345679006,0)" xlink:href="#aD"/><use transform="matrix(0.08641975308641975,0,0,0.08641975308641975,68.96296296296296,0)" xlink:href="#at"/><use transform="matrix(0.08641975308641975,0,0,0.08641975308641975,75.79012345679013,0)" xlink:href="#aG"/><use transform="matrix(0.08641975308641975,0,0,0.08641975308641975,84.4320987654321,0)" xlink:href="#aO"/><use transform="matrix(0.08641975308641975,0,0,0.08641975308641975,101.71604938271605,0)" xlink:href="#ar"/><use transform="matrix(0.08641975308641975,0,0,0.08641975308641975,127.55555555555554,0)" xlink:href="#aB"/></g><g id="H"><use transform="matrix(0.08641975308641975,0,0,0.08641975308641975,0,0)" xlink:href="#aD"/><use transform="matrix(0.08641975308641975,0,0,0.08641975308641975,10.28395061728395,0)" xlink:href="#ay"/><use transform="matrix(0.08641975308641975,0,0,0.08641975308641975,27.5679012345679,0)" xlink:href="#aF"/><use transform="matrix(0.08641975308641975,0,0,0.08641975308641975,36.20987654320987,0)" xlink:href="#at"/><use transform="matrix(0.08641975308641975,0,0,0.08641975308641975,43.03703703703703,0)" xlink:href="#au"/><use transform="matrix(0.08641975308641975,0,0,0.08641975308641975,60.32098765432099,0)" xlink:href="#ay"/><use transform="matrix(0.08641975308641975,0,0,0.08641975308641975,77.60493827160494,0)" xlink:href="#ap"/></g><g id="I"><use transform="matrix(0.08641975308641975,0,0,0.08641975308641975,0,0)" xlink:href="#aF"/><use transform="matrix(0.08641975308641975,0,0,0.08641975308641975,8.641975308641975,0)" xlink:href="#ay"/><use transform="matrix(0.08641975308641975,0,0,0.08641975308641975,25.925925925925924,0)" xlink:href="#as"/><use transform="matrix(0.08641975308641975,0,0,0.08641975308641975,43.20987654320987,0)" xlink:href="#aG"/><use transform="matrix(0.08641975308641975,0,0,0.08641975308641975,51.85185185185185,0)" xlink:href="#aC"/><use transform="matrix(0.08641975308641975,0,0,0.08641975308641975,69.1358024691358,0)" xlink:href="#aD"/><use transform="matrix(0.08641975308641975,0,0,0.08641975308641975,79.41975308641975,0)" xlink:href="#ay"/><use transform="matrix(0.08641975308641975,0,0,0.08641975308641975,96.7037037037037,0)" xlink:href="#aB"/></g><g id="J"><use transform="matrix(0.07407407407407408,0,0,0.07407407407407408,0,0)" xlink:href="#aH"/><use transform="matrix(0.07407407407407408,0,0,0.07407407407407408,14.814814814814817,0)" xlink:href="#aD"/><use transform="matrix(0.07407407407407408,0,0,0.07407407407407408,23.629629629629633,0)" xlink:href="#aq"/><use transform="matrix(0.07407407407407408,0,0,0.07407407407407408,38.44444444444445,0)" xlink:href="#aL"/><use transform="matrix(0.07407407407407408,0,0,0.07407407407407408,53.25925925925927,0)" xlink:href="#ax"/><use transform="matrix(0.07407407407407408,0,0,0.07407407407407408,59.11111111111112,0)" xlink:href="#ay"/><use transform="matrix(0.07407407407407408,0,0,0.07407407407407408,73.92592592592594,0)" xlink:href="#ar"/></g><g id="K"><use transform="matrix(0.07407407407407408,0,0,0.07407407407407408,0,0)" xlink:href="#aB"/><use transform="matrix(0.07407407407407408,0,0,0.07407407407407408,13.333333333333336,0)" xlink:href="#aq"/><use transform="matrix(0.07407407407407408,0,0,0.07407407407407408,28.148148148148152,0)" xlink:href="#ax"/><use transform="matrix(0.07407407407407408,0,0,0.07407407407407408,34.00000000000001,0)" xlink:href="#aP"/><use transform="matrix(0.07407407407407408,0,0,0.07407407407407408,47.33333333333334,0)" xlink:href="#ay"/><use transform="matrix(0.07407407407407408,0,0,0.07407407407407408,62.14814814814816,0)" xlink:href="#ap"/><use transform="matrix(0.07407407407407408,0,0,0.07407407407407408,76.96296296296298,0)" xlink:href="#aA"/></g><g id="L"><use transform="matrix(0.07407407407407408,0,0,0.07407407407407408,0,0)" xlink:href="#aB"/><use transform="matrix(0.07407407407407408,0,0,0.07407407407407408,13.333333333333336,0)" xlink:href="#aq"/><use transform="matrix(0.07407407407407408,0,0,0.07407407407407408,28.148148148148152,0)" xlink:href="#ax"/><use transform="matrix(0.07407407407407408,0,0,0.07407407407407408,34.00000000000001,0)" xlink:href="#aC"/><use transform="matrix(0.07407407407407408,0,0,0.07407407407407408,48.814814814814824,0)" xlink:href="#aG"/><use transform="matrix(0.07407407407407408,0,0,0.07407407407407408,56.22222222222223,0)" xlink:href="#at"/><use transform="matrix(0.07407407407407408,0,0,0.07407407407407408,62.07407407407408,0)" xlink:href="#aq"/><use transform="matrix(0.07407407407407408,0,0,0.07407407407407408,76.8888888888889,0)" xlink:href="#au"/></g><g id="M"><use transform="matrix(0.07407407407407408,0,0,0.07407407407407408,0,0)" xlink:href="#ap"/><use transform="matrix(0.07407407407407408,0,0,0.07407407407407408,14.814814814814817,0)" xlink:href="#ay"/><use transform="matrix(0.07407407407407408,0,0,0.07407407407407408,29.629629629629633,0)" xlink:href="#aG"/><use transform="matrix(0.07407407407407408,0,0,0.07407407407407408,37.03703703703704,0)" xlink:href="#as"/><use transform="matrix(0.07407407407407408,0,0,0.07407407407407408,51.85185185185186,0)" xlink:href="#at"/><use transform="matrix(0.07407407407407408,0,0,0.07407407407407408,57.70370370370371,0)" xlink:href="#ax"/><use transform="matrix(0.07407407407407408,0,0,0.07407407407407408,63.555555555555564,0)" xlink:href="#aB"/><use transform="matrix(0.07407407407407408,0,0,0.07407407407407408,76.8888888888889,0)" xlink:href="#aA"/></g><g id="N"><use transform="matrix(0.07407407407407408,0,0,0.07407407407407408,0,0)" xlink:href="#ax"/><use transform="matrix(0.07407407407407408,0,0,0.07407407407407408,5.851851851851853,0)" xlink:href="#at"/><use transform="matrix(0.07407407407407408,0,0,0.07407407407407408,11.703703703703706,0)" xlink:href="#ar"/><use transform="matrix(0.07407407407407408,0,0,0.07407407407407408,33.85185185185186,0)" xlink:href="#at"/><use transform="matrix(0.07407407407407408,0,0,0.07407407407407408,39.70370370370372,0)" xlink:href="#aG"/><use transform="matrix(0.07407407407407408,0,0,0.07407407407407408,47.11111111111113,0)" xlink:href="#as"/><use transform="matrix(0.07407407407407408,0,0,0.07407407407407408,61.925925925925945,0)" xlink:href="#aG"/><use transform="matrix(0.07407407407407408,0,0,0.07407407407407408,69.33333333333336,0)" xlink:href="#at"/><use transform="matrix(0.07407407407407408,0,0,0.07407407407407408,75.1851851851852,0)" xlink:href="#aq"/><use transform="matrix(0.07407407407407408,0,0,0.07407407407407408,90.00000000000003,0)" xlink:href="#au"/><use transform="matrix(0.07407407407407408,0,0,0.07407407407407408,104.81481481481485,0)" xlink:href="#aB"/><use transform="matrix(0.07407407407407408,0,0,0.07407407407407408,118.14814814814818,0)" xlink:href="#aA"/></g><g id="O"><use transform="matrix(0.07407407407407408,0,0,0.07407407407407408,0,0)" xlink:href="#aq"/><use transform="matrix(0.07407407407407408,0,0,0.07407407407407408,14.814814814814817,0)" xlink:href="#aG"/><use transform="matrix(0.07407407407407408,0,0,0.07407407407407408,22.222222222222225,0)" xlink:href="#aO"/><use transform="matrix(0.07407407407407408,0,0,0.07407407407407408,37.03703703703704,0)" xlink:href="#ay"/><use transform="matrix(0.07407407407407408,0,0,0.07407407407407408,51.85185185185186,0)" xlink:href="#aD"/></g><g id="P"><use transform="matrix(0.07407407407407408,0,0,0.07407407407407408,0,0)" xlink:href="#at"/><use transform="matrix(0.07407407407407408,0,0,0.07407407407407408,5.851851851851853,0)" xlink:href="#au"/><use transform="matrix(0.07407407407407408,0,0,0.07407407407407408,20.666666666666668,0)" xlink:href="#aG"/><use transform="matrix(0.07407407407407408,0,0,0.07407407407407408,28.074074074074076,0)" xlink:href="#ay"/><use transform="matrix(0.07407407407407408,0,0,0.07407407407407408,42.8888888888889,0)" xlink:href="#aD"/><use transform="matrix(0.07407407407407408,0,0,0.07407407407407408,51.70370370370372,0)" xlink:href="#ay"/><use transform="matrix(0.07407407407407408,0,0,0.07407407407407408,66.51851851851853,0)" xlink:href="#aB"/><use transform="matrix(0.07407407407407408,0,0,0.07407407407407408,79.85185185185188,0)" xlink:href="#aG"/><use transform="matrix(0.07407407407407408,0,0,0.07407407407407408,87.25925925925928,0)" xlink:href="#at"/><use transform="matrix(0.07407407407407408,0,0,0.07407407407407408,93.11111111111113,0)" xlink:href="#au"/><use transform="matrix(0.07407407407407408,0,0,0.07407407407407408,107.92592592592595,0)" xlink:href="#az"/></g><g id="Q"><use transform="matrix(0.07407407407407408,0,0,0.07407407407407408,0,0)" xlink:href="#aF"/><use transform="matrix(0.07407407407407408,0,0,0.07407407407407408,7.407407407407408,0)" xlink:href="#at"/><use transform="matrix(0.07407407407407408,0,0,0.07407407407407408,13.259259259259261,0)" xlink:href="#au"/><use transform="matrix(0.07407407407407408,0,0,0.07407407407407408,28.074074074074076,0)" xlink:href="#ap"/><use transform="matrix(0.07407407407407408,0,0,0.07407407407407408,42.88888888888889,0)" xlink:href="#at"/><use transform="matrix(0.07407407407407408,0,0,0.07407407407407408,48.74074074074075,0)" xlink:href="#au"/><use transform="matrix(0.07407407407407408,0,0,0.07407407407407408,63.555555555555564,0)" xlink:href="#az"/><use transform="matrix(0.07407407407407408,0,0,0.07407407407407408,78.37037037037038,0)" xlink:href="#aB"/></g></defs></g></svg>