<?xml version="1.0" encoding="UTF-8" standalone="no"?>
<svg width="279px" height="150px" viewBox="0 0 279 150" version="1.1" xmlns="http://www.w3.org/2000/svg" xmlns:xlink="http://www.w3.org/1999/xlink">
    <!-- Generator: Sketch 3.6.1 (26313) - http://www.bohemiancoding.com/sketch -->
    <title>Group</title>
    <desc>Created with Sketch.</desc>
    <defs></defs>
    <g id="Page-1" stroke="none" stroke-width="1" fill="none" fill-rule="evenodd">
        <g id="Group">
            <g id="g3">
                <path d="M213.32,127.348 C247.189,93.481 252.818,44.202 225.892,17.278 C198.97,-9.643 149.693,-4.015 115.826,29.85 C81.959,63.716 91.756,128.418 103.256,139.92 C112.549,149.213 179.455,161.213 213.32,127.348 L213.32,127.348 Z" id="path5" fill="#F89939"></path>
                <path d="M74.35,78.411 C54.702,58.763 26.108,55.492 10.483,71.116 C-5.138,86.738 -1.872,115.336 17.78,134.981 C37.432,154.635 74.975,148.95 81.643,142.276 C87.039,136.889 94.004,98.061 74.35,78.411 L74.35,78.411 Z" id="path7" fill="#3499CD"></path>
            </g>
            <path d="M142.143,119.047 C138.672,122.242 135.627,124.6 133.01,126.115 C130.393,127.635 127.897,128.394 125.522,128.394 C122.79,128.394 120.586,127.335 118.915,125.216 C117.241,123.095 116.407,120.251 116.407,116.673 C116.407,111.312 117.569,104.876 119.893,97.372 C122.213,89.862 125.038,82.942 128.356,76.611 L138.085,73.009 C138.39,72.907 138.622,72.855 138.776,72.855 C139.514,72.855 140.124,73.399 140.592,74.482 C141.065,75.57 141.303,77.032 141.303,78.87 C141.303,84.079 140.104,89.122 137.701,93.999 C135.299,98.878 131.547,104.085 126.441,109.626 C126.236,112.282 126.134,114.106 126.134,115.103 C126.134,117.326 126.542,119.085 127.359,120.388 C128.177,121.693 129.261,122.341 130.615,122.341 C131.996,122.341 133.463,121.847 135.021,120.851 C136.576,119.853 138.951,117.787 142.142,114.644 L142.142,119.047 L142.143,119.047 Z M127.475,104.074 C130.717,100.469 133.35,96.426 135.366,91.953 C137.382,87.478 138.389,83.629 138.389,80.404 C138.389,79.464 138.25,78.7 137.971,78.126 C137.69,77.551 137.33,77.262 136.897,77.262 C135.956,77.262 134.581,79.614 132.78,84.319 C130.979,89.023 129.211,95.609 127.475,104.074 L127.475,104.074 Z" id="path13" stroke="#000000" fill="#FFFFFF"></path>
            <path d="M170.795,119.047 C167.553,122.242 164.643,124.6 162.063,126.115 C159.483,127.635 156.639,128.394 153.522,128.394 C150.049,128.394 147.247,127.283 145.112,125.064 C142.981,122.839 141.917,119.918 141.917,116.291 C141.917,110.879 143.792,105.982 147.55,101.603 C151.3,97.222 155.464,95.033 160.034,95.033 C162.409,95.033 164.309,95.648 165.741,96.873 C167.171,98.1 167.886,99.707 167.886,101.699 C167.886,106.986 162.269,111.273 151.034,114.568 C152.054,119.545 154.722,122.037 159.038,122.037 C160.724,122.037 162.331,121.584 163.862,120.68 C165.397,119.772 167.706,117.758 170.796,114.645 L170.796,119.047 L170.795,119.047 Z M150.725,111.963 C157.26,110.123 160.53,106.729 160.53,101.775 C160.53,99.324 159.635,98.099 157.85,98.099 C156.164,98.099 154.557,99.38 153.026,101.949 C151.49,104.514 150.725,107.85 150.725,111.963 L150.725,111.963 Z" id="path15" stroke="#000000" fill="#FFFFFF"></path>
            <path d="M211.701,119.047 C207.615,122.928 204.691,125.459 202.931,126.635 C201.169,127.809 199.484,128.395 197.874,128.395 C193.839,128.395 191.938,124.834 192.167,117.709 C189.614,121.359 187.257,124.053 185.099,125.793 C182.943,127.529 180.716,128.395 178.415,128.395 C176.171,128.395 174.263,127.344 172.69,125.237 C171.117,123.13 170.336,120.546 170.336,117.479 C170.336,113.651 171.387,109.999 173.492,106.524 C175.601,103.051 178.301,100.245 181.594,98.1 C184.887,95.955 187.801,94.881 190.326,94.881 C193.519,94.881 195.754,96.35 197.031,99.285 L204.859,94.959 L207.007,94.959 L203.626,106.18 C201.89,111.825 201.019,115.694 201.019,117.787 C201.019,119.982 201.796,121.08 203.355,121.08 C204.347,121.08 205.445,120.551 206.646,119.49 C207.847,118.429 209.529,116.814 211.699,114.644 L211.699,119.047 L211.701,119.047 Z M183.664,121.156 C186.217,121.156 188.623,118.98 190.887,114.627 C193.147,110.272 194.276,106.254 194.276,102.578 C194.276,101.15 193.954,100.031 193.319,99.228 C192.678,98.421 191.823,98.021 190.753,98.021 C188.198,98.021 185.776,100.191 183.495,104.533 C181.21,108.875 180.065,112.871 180.065,116.519 C180.065,117.9 180.405,119.017 181.081,119.873 C181.757,120.729 182.615,121.156 183.664,121.156 L183.664,121.156 Z" id="path17" stroke="#000000" fill="#FFFFFF"></path>
            <path d="M240.314,119.047 C233.904,125.328 228.962,128.471 225.49,128.471 C223.931,128.471 222.615,127.813 221.545,126.502 C220.475,125.186 219.936,123.557 219.936,121.615 C219.936,118.015 221.866,113.191 225.721,107.138 C223.83,108.109 221.764,108.783 219.516,109.167 C217.856,112.231 215.25,115.526 211.702,119.046 L210.823,119.046 L210.823,115.603 C212.813,113.535 214.614,111.312 216.223,108.937 C214.024,107.966 212.928,106.523 212.928,104.611 C212.928,102.642 213.596,100.543 214.94,98.306 C216.28,96.074 218.124,94.958 220.475,94.958 C222.467,94.958 223.461,95.976 223.461,98.02 C223.461,99.629 222.887,101.926 221.736,104.915 C225.974,104.454 229.677,101.214 232.845,95.186 L236.329,95.032 L232.767,104.837 C231.287,108.974 230.329,111.792 229.896,113.284 C229.463,114.776 229.244,116.1 229.244,117.247 C229.244,118.321 229.494,119.179 229.99,119.813 C230.488,120.456 231.16,120.772 232.002,120.772 C232.92,120.772 233.803,120.458 234.645,119.836 C235.487,119.205 237.377,117.477 240.315,114.643 L240.315,119.047 L240.314,119.047 Z" id="path19" stroke="#000000" fill="#FFFFFF"></path>
            <path d="M277.928,119.047 C272.03,125.281 266.971,128.395 262.76,128.395 C261.049,128.395 259.67,127.795 258.623,126.594 C257.574,125.395 257.051,123.787 257.051,121.77 C257.051,119.038 258.176,114.862 260.424,109.247 C261.623,106.233 262.225,104.315 262.225,103.501 C262.225,102.683 261.903,102.274 261.268,102.274 C260.911,102.274 260.436,102.454 259.85,102.809 C259.311,103.166 258.686,103.668 257.971,104.305 C257.334,104.891 256.617,105.606 255.826,106.446 C255.135,107.167 254.394,107.983 253.607,108.899 L251.459,111.391 C250.516,112.539 249.928,113.75 249.699,115.028 C249.314,117.198 249.06,119.192 248.931,121.007 C248.853,122.357 248.816,124.181 248.816,126.484 L240.351,128.472 C240.072,125.025 239.929,122.458 239.929,120.775 C239.929,116.664 240.408,112.769 241.367,109.093 C242.324,105.413 243.861,101.279 245.982,96.681 L255.326,94.882 C253.361,100.169 252.072,104.329 251.459,107.366 C255.647,102.694 258.967,99.46 261.428,97.657 C263.885,95.856 266.073,94.96 267.985,94.96 C269.284,94.96 270.37,95.45 271.235,96.431 C272.104,97.413 272.536,98.646 272.536,100.12 C272.536,102.569 271.438,106.604 269.245,112.224 C267.737,116.078 266.983,118.579 266.983,119.734 C266.983,121.271 267.61,122.039 268.864,122.039 C270.731,122.039 273.755,119.574 277.928,114.646 L277.928,119.047 L277.928,119.047 Z" id="path21" stroke="#000000" fill="#FFFFFF"></path>
            <text id="text25" fill="#FFFFFF" font-family="Helvetica" font-size="23.0795002" font-weight="normal">
                <tspan x="153.9414" y="82.2061" fill="#000000">scikit</tspan>
            </text>
        </g>
    </g>
</svg>