<?xml version="1.0" encoding="UTF-8" standalone="no"?>
<svg width="763px" height="180px" viewBox="0 0 763 180" version="1.1" xmlns="http://www.w3.org/2000/svg" xmlns:xlink="http://www.w3.org/1999/xlink">
    <!-- Generator: Sketch 3.6.1 (26313) - http://www.bohemiancoding.com/sketch -->
    <title>Group 2</title>
    <desc>Created with Sketch.</desc>
    <defs></defs>
    <g id="Page-1" stroke="none" stroke-width="1" fill="none" fill-rule="evenodd">
        <g id="Group-2" transform="translate(1.000000, 1.000000)" stroke-width="2.5" stroke="#000000" fill="#FFFFFF">
            <g id="Group">
                <path d="M201.9595,87.2508 C201.9595,93.1848 191.7835,105.5078 185.8505,105.5078 C185.8505,105.5078 169.7405,110.3408 141.8185,110.3408 C114.9695,110.3408 98.8595,105.5078 98.8595,105.5078 C92.9265,105.5078 82.7505,93.1848 82.7505,87.2508 L82.7505,51.8098 C82.7505,45.8768 87.5565,41.0698 93.4905,41.0698 L191.2205,41.0698 C197.1535,41.0698 201.9595,45.8768 201.9595,51.8098 L201.9595,87.2508 L201.9595,87.2508 Z M191.2205,136.3848 C185.8835,136.3848 181.5545,132.0568 181.5545,126.7188 C181.5545,121.3818 185.8835,117.0528 191.2205,117.0528 C196.5575,117.0528 200.8865,121.3818 200.8865,126.7188 C200.8865,132.0568 196.5575,136.3848 191.2205,136.3848 L191.2205,136.3848 L191.2205,136.3848 Z M175.1105,137.4588 C172.7375,137.4588 170.8145,135.5358 170.8145,133.1628 C170.8145,130.7888 172.7375,128.8668 175.1105,128.8668 C177.4835,128.8668 179.4065,130.7888 179.4065,133.1628 C179.4065,135.5358 177.4835,137.4588 175.1105,137.4588 L175.1105,137.4588 L175.1105,137.4588 Z M109.6005,137.4588 C107.2265,137.4588 105.3035,135.5358 105.3035,133.1628 C105.3035,130.7888 107.2265,128.8668 109.6005,128.8668 C111.9735,128.8668 113.8955,130.7888 113.8955,133.1628 C113.8955,135.5358 111.9735,137.4588 109.6005,137.4588 L109.6005,137.4588 L109.6005,137.4588 Z M93.4905,136.3848 C88.1525,136.3848 83.8245,132.0568 83.8245,126.7188 C83.8245,121.3818 88.1525,117.0528 93.4905,117.0528 C98.8275,117.0528 103.1555,121.3818 103.1555,126.7188 C103.1555,132.0568 98.8275,136.3848 93.4905,136.3848 L93.4905,136.3848 L93.4905,136.3848 Z M110.1365,21.8958 C110.1365,19.1878 112.2895,16.9978 114.9475,16.9978 L169.7635,16.9978 C172.4205,16.9978 174.5735,19.1878 174.5735,21.8958 L174.5735,22.4798 C174.5735,25.1868 172.4205,27.3778 169.7635,27.3778 L114.9475,27.3778 C112.2895,27.3778 110.1365,25.1868 110.1365,22.4798 L110.1365,21.8958 L110.1365,21.8958 Z M208.4035,22.0078 C208.4035,16.0738 169.7405,0.5288 142.8925,0.5288 C114.9695,0.5288 76.3075,16.0738 76.3075,22.0078 L76.3075,91.7678 C78.1585,93.4378 79.5275,98.9398 79.5275,100.9438 C79.5275,102.9468 78.1585,108.4508 76.3075,110.1208 L76.3075,143.3648 C76.3075,147.3388 78.4655,153.2248 81.6765,156.6718 L81.6765,172.4218 C81.6765,173.8878 82.6095,176.4048 83.7595,176.4048 C83.7595,176.4048 87.1005,177.7318 92.3135,177.7318 C97.7315,177.7318 101.0715,176.4048 101.0715,176.4048 C102.2215,176.4048 103.1555,173.8878 103.1555,172.4218 L103.1555,161.9988 C113.6215,163.3948 127.8615,164.8448 141.8185,164.8448 C156.3865,164.8448 170.9545,163.3838 181.5545,161.9818 L181.5545,172.4218 C181.5545,173.8878 182.4885,176.4048 183.6385,176.4048 C183.6385,176.4048 186.9785,177.7318 192.1915,177.7318 C197.6095,177.7318 200.9505,176.4048 200.9505,176.4048 C202.1005,176.4048 203.0335,173.8878 203.0335,172.4218 L203.0335,156.6718 C206.2455,153.2248 208.4035,147.3388 208.4035,143.3648 L208.4035,110.1208 C206.5515,108.4508 205.1825,102.9468 205.1825,100.9438 C205.1825,98.9398 206.5515,93.4378 208.4035,91.7678 L208.4035,22.0078 L208.4035,22.0078 Z" id="Fill-50"></path>
                <path d="M284.0854,89.2811 C284.0854,77.5421 281.1914,66.4751 276.0794,56.7601 L266.5794,61.7501 C270.9084,69.9701 273.3614,79.3411 273.3614,89.2811 C273.3614,99.1341 270.9514,108.4251 266.6924,116.5921 L276.1964,121.5801 C281.2334,111.9261 284.0854,100.9331 284.0854,89.2811" id="Fill-51"></path>
                <path d="M263.2729,89.2811 C263.2729,80.2381 261.0439,71.7211 257.1019,64.2411 L247.5979,69.2291 C250.7599,75.2121 252.5489,82.0421 252.5489,89.2811 C252.5489,96.4381 250.8029,103.1831 247.7149,109.1171 L257.2209,114.0991 C261.0859,106.6781 263.2729,98.2371 263.2729,89.2811" id="Fill-52"></path>
                <path d="M243.5327,89.2811 C243.5327,82.9391 241.9657,76.9621 239.1997,71.7211 L229.6897,76.7101 C231.6817,80.4581 232.8087,84.7381 232.8087,89.2811 C232.8087,93.7381 231.7247,97.9371 229.8077,101.6361 L239.3127,106.6201 C242.0087,101.4321 243.5327,95.5361 243.5327,89.2811" id="Fill-53"></path>
                <path d="M0.3989,89.2811 C0.3989,77.5421 3.2939,66.4751 8.4049,56.7601 L17.9099,61.7501 C13.5769,69.9701 11.1279,79.3411 11.1279,89.2811 C11.1279,99.1341 13.5339,108.4251 17.7919,116.5921 L8.2879,121.5801 C3.2509,111.9261 0.3989,100.9331 0.3989,89.2811" id="Fill-54"></path>
                <path d="M21.2124,89.2811 C21.2124,80.2381 23.4414,71.7211 27.3834,64.2411 L36.8874,69.2291 C33.7294,75.2121 31.9414,82.0421 31.9414,89.2811 C31.9414,96.4381 33.6864,103.1831 36.7744,109.1171 L27.2704,114.0991 C23.3994,106.6781 21.2124,98.2371 21.2124,89.2811" id="Fill-55"></path>
                <path d="M40.9517,89.2811 C40.9517,82.9391 42.5197,76.9621 45.2907,71.7211 L54.7957,76.7101 C52.8087,80.4581 51.6807,84.7381 51.6807,89.2811 C51.6807,93.7381 52.7607,97.9371 54.6777,101.6361 L45.1727,106.6201 C42.4767,101.4321 40.9517,95.5361 40.9517,89.2811" id="Fill-56"></path>
            </g>
            <path d="M316,111.086419 C323.163486,117.372318 331.93489,120.423047 341.989949,120.423047 C356.630771,120.423047 365.870716,113.186677 365.870716,100.614877 C365.870716,91.2856857 359.970062,82.4443729 347.253981,80.901903 C344.002449,80.5181448 341.414312,80.1343866 339.593692,79.8398745 C332.700919,78.7852832 329.92834,74.9358018 329.92834,71.0937575 C329.92834,64.552019 335.00198,61.2870995 341.317629,61.2870995 C347.349177,61.2870995 353.197771,63.3947947 358.156879,66.573443 L363.868629,58.0430041 C357.685362,53.9540456 350.225876,51 341.79807,51 C327.741811,51 319.642728,59.1838666 319.642728,70.9018784 C319.642728,80.8081946 325.92714,88.4982328 337.683825,90.1358986 C341.22392,90.6148526 343.61869,90.9986108 346.687269,91.3808816 C352.812525,92.1558351 355.585104,95.8074877 355.585104,100.614877 C355.585104,106.293903 350.512951,110.13446 342.085145,110.13446 C334.810101,110.13446 327.924765,107.443691 322.788653,103.307134 L316,111.086419 L316,111.086419 Z" id="Fill-57"></path>
            <path d="M376.889198,70.7613035 L372,70.7613035 L372,77.8548804 L376.889198,77.8548804 L376.889198,107.224282 C376.889198,114.985717 381.729311,119.3558 388.390045,119.3558 L393.468147,119.3558 L393.468147,110.026609 L389.828394,110.026609 C387.432137,110.026609 386.377545,109.059776 386.377545,106.352645 L386.377545,77.8548804 L393.468147,77.8548804 L393.468147,70.7613035 L386.377545,70.7613035 L386.377545,56 L376.889198,56 L376.889198,70.7613035 L376.889198,70.7613035 Z" id="Fill-58"></path>
            <path d="M428.472034,119.585128 L437.960381,119.585128 L437.960381,86.2784871 C437.960381,74.0815213 429.965419,70 418.016855,70 C410.731399,70 405.315648,71.9411025 401.52269,77.1887727 L409.287099,83.1474367 C411.018474,80.3123859 413.414731,79.3306789 418.494321,79.3306789 C425.500139,79.3306789 428.472034,80.9995808 428.472034,85.6954126 L428.472034,90.8791231 L414.948277,90.8791231 C404.438062,90.8791231 399,97.3569019 399,105.209071 C399,113.938826 405.412332,120.447841 416.29143,120.447841 C422.912003,120.447841 426.267656,118.897934 428.280155,115.487245 L428.472034,115.487245 L428.472034,119.585128 L428.472034,119.585128 Z M428.472034,102.42013 C428.472034,110.223213 425.692019,111.118649 417.536413,111.118649 C410.923278,111.118649 408.327704,108.154192 408.327704,104.792589 C408.327704,101.143911 411.018474,98.7699651 416.770384,98.7699651 L428.472034,98.7699651 L428.472034,102.42013 L428.472034,102.42013 Z" id="Fill-59"></path>
            <path d="M451,119.32929 L460.488347,119.32929 L460.488347,89.7605721 C460.488347,82.5881612 465.185666,79.4898344 469.976694,79.4898344 C472.469635,79.4898344 474.098376,80.1591801 476.399438,81.9084035 L483.491527,73.6263662 C480.519632,71.3981888 477.26215,70 473.332347,70 C468.154586,70 463.747317,71.860781 460.680226,75.5838305 L460.488347,75.5838305 L460.488347,70.5905116 L451,70.5905116 L451,119.32929 L451,119.32929 Z" id="Fill-60"></path>
            <path d="M488.889198,70.7613035 L484,70.7613035 L484,77.8548804 L488.889198,77.8548804 L488.889198,107.224282 C488.889198,114.985717 493.729311,119.3558 500.390045,119.3558 L505.468147,119.3558 L505.468147,110.026609 L501.826907,110.026609 C499.432137,110.026609 498.377545,109.059776 498.377545,106.352645 L498.377545,77.8548804 L505.468147,77.8548804 L505.468147,70.7613035 L498.377545,70.7613035 L498.377545,56 L488.889198,56 L488.889198,70.7613035 L488.889198,70.7613035 Z" id="Fill-61"></path>
            <path d="M515,103.667044 C515,114.657701 523.371283,120.32929 531.006287,120.32929 C536.087364,120.32929 540.496121,118.468509 543.561724,114.745459 L543.753603,114.745459 L543.753603,119.738778 L553.24195,119.738778 L553.24195,71 L543.753603,71 L543.753603,99.954407 C543.753603,106.966175 539.631921,110.840943 534.17006,110.840943 C528.608542,110.840943 524.489834,106.966175 524.489834,100.274205 L524.489834,71 L515,71 L515,103.667044 L515,103.667044 Z" id="Fill-62"></path>
            <path d="M566,139.298103 L575.488347,139.298103 L575.488347,114.449016 C579.129588,117.795744 583.060878,120.032846 588.043785,120.032846 C593.986087,120.032846 598.197015,117.428348 600.895222,113.88974 C603.498233,110.544499 604.24195,107.291479 604.24195,95.0647648 C604.24195,82.7398796 603.498233,79.4898344 600.895222,76.143106 C598.197015,72.6044984 593.986087,70 588.043785,70 C583.060878,70 578.55395,72.237102 575.488347,75.4886346 L575.488347,70.5919991 L566,70.5919991 L566,139.298103 L566,139.298103 Z M585.07189,110.544499 C575.967301,110.544499 575.488347,102.381457 575.488347,95.2804429 C575.488347,87.7718717 575.967301,79.4898344 585.07189,79.4898344 C594.274649,79.4898344 594.753603,87.2750685 594.753603,95.0647648 C594.753603,102.867848 594.274649,110.544499 585.07189,110.544499 L585.07189,110.544499 L585.07189,110.544499 Z" id="Fill-63"></path>
            <path d="M616,118.812155 L644.842849,118.812155 C655.161185,118.812155 663.82698,111.464227 663.82698,99.5870597 C663.82698,92.5738043 660.211026,85.3701573 652.773852,83.6209339 L652.773852,83.4201302 C660.138142,79.8264876 662.229475,74.529732 662.229475,69.0901828 C662.229475,58.6751639 655.369426,51 642.189266,51 L616,51 L616,118.812155 L616,118.812155 Z M642.006311,88.4759213 C650.065233,88.4759213 653.539881,93.4439537 653.539881,98.8998648 C653.539881,104.354288 650.065233,109.322321 642.333547,109.322321 L626.288587,109.322321 L626.288587,88.4759213 L642.006311,88.4759213 L642.006311,88.4759213 Z M641.368202,60.3306789 C648.445417,60.3306789 651.942376,64.6665515 651.942376,69.7387044 C651.942376,74.9060531 648.445417,79.1482173 641.057328,79.1482173 L626.288587,79.1482173 L626.288587,60.3306789 L641.368202,60.3306789 L641.368202,60.3306789 Z" id="Fill-64"></path>
            <path d="M674,103.667044 C674,114.657701 682.371283,120.32929 690.006287,120.32929 C695.087364,120.32929 699.494633,118.468509 702.561724,114.745459 L702.753603,114.745459 L702.753603,119.738778 L712.24195,119.738778 L712.24195,71 L702.753603,71 L702.753603,99.954407 C702.753603,106.966175 698.633409,110.840943 693.168573,110.840943 C687.608542,110.840943 683.488347,106.966175 683.488347,100.274205 L683.488347,71 L674,71 L674,103.667044 L674,103.667044 Z" id="Fill-65"></path>
            <path d="M719,111.597603 C725.141619,117.532468 732.241145,120.447841 740.300067,120.447841 C751.849999,120.447841 760.404237,114.905658 760.404237,105.255181 C760.404237,97.3569019 756.498233,91.1260373 746.489284,90.447767 L738.232533,89.86618 C733.22434,89.4809344 731.650633,87.3553899 731.650633,85.231333 C731.650633,81.8459312 733.814851,79.3306789 740.204871,79.3306789 C745.613185,79.3306789 749.638183,81.1676609 753.431142,83.8733049 L759.287173,76.7098187 C754.637452,72.6208602 748.950988,70 740.204871,70 C729.789852,70 722.162287,75.1524744 722.162287,85.1287 C722.162287,93.5624556 727.927584,98.4204179 735.971632,99.1061253 L744.821869,99.8810789 C748.265281,100.175591 750.91589,101.253981 750.91589,104.76879 C750.91589,108.969306 746.786771,111.118649 741.083945,111.118649 C734.399413,111.118649 729.789852,108.969306 725.699407,104.76879 L719,111.597603 L719,111.597603 Z" id="Fill-66"></path>
        </g>
    </g>
</svg>